<svg width="33" height="26" viewBox="0 0 33 26" fill="none" xmlns="http://www.w3.org/2000/svg">
<path d="M27.356 5.48832L29.8089 7.92807L19.9038 17.7792C19.7474 17.9353 19.5651 18.0577 19.3607 18.1448L15.3754 19.8439L17.0832 15.8807C17.1713 15.6769 17.2944 15.4955 17.4502 15.3411L27.356 5.48832ZM31.8531 5.08206L30.2175 3.45532C30.1209 3.35874 29.9725 3.30371 29.8093 3.30371C29.6461 3.30371 29.4971 3.3593 29.4 3.45532L28.1734 4.67523L30.6265 7.11505L31.8531 5.89514C31.9637 5.78452 32.0224 5.64414 32.0224 5.4886C32.0224 5.3325 31.9643 5.19268 31.8531 5.08206ZM5.51562 14.7004H10.1406C10.4644 14.7004 10.7188 14.4474 10.7188 14.1254V11.8254C10.7188 11.5034 10.4644 11.2504 10.1406 11.2504H5.51562C5.19184 11.2504 4.9375 11.5034 4.9375 11.8254V14.1254C4.9375 14.4474 5.19184 14.7004 5.51562 14.7004ZM20.7213 18.5923L28.0625 11.2911V22.1754C28.0625 23.7624 26.7675 25.0504 25.1719 25.0504H3.20312C1.60749 25.0504 0.3125 23.7624 0.3125 22.1754V7.80039H23.3966L16.6344 14.5263C16.3724 14.7857 16.1663 15.089 16.0207 15.4276L13.8562 20.4504H4.35938C4.03559 20.4504 3.78125 20.7034 3.78125 21.0254C3.78125 21.3474 4.03559 21.6004 4.35938 21.6004H14.1875C14.3539 21.6004 14.5003 21.5321 14.6049 21.4234L19.8158 19.2021C20.1562 19.0573 20.4611 18.8523 20.7213 18.5923ZM3.78125 14.1254C3.78125 15.0798 4.55592 15.8504 5.51562 15.8504H10.1406C11.1003 15.8504 11.875 15.0798 11.875 14.1254V11.8254C11.875 10.8709 11.1003 10.1004 10.1406 10.1004H5.51562C4.55592 10.1004 3.78125 10.8709 3.78125 11.8254V14.1254ZM24.5527 6.65039H0.3125V3.77539C0.3125 2.19021 1.60933 0.900391 3.20312 0.900391H25.1719C26.5731 0.900391 27.743 1.89794 28.0056 3.21604L24.5527 6.65039ZM6.09375 4.35039C6.09375 3.71643 5.57491 3.20039 4.9375 3.20039C4.30009 3.20039 3.78125 3.71643 3.78125 4.35039C3.78125 4.98435 4.30009 5.50039 4.9375 5.50039C5.57491 5.50039 6.09375 4.98435 6.09375 4.35039ZM9.5625 4.35039C9.5625 3.71643 9.04366 3.20039 8.40625 3.20039C7.76884 3.20039 7.25 3.71643 7.25 4.35039C7.25 4.98435 7.76884 5.50039 8.40625 5.50039C9.04366 5.50039 9.5625 4.98435 9.5625 4.35039ZM13.0312 4.35039C13.0312 3.71643 12.5124 3.20039 11.875 3.20039C11.2376 3.20039 10.7188 3.71643 10.7188 4.35039C10.7188 4.98435 11.2376 5.50039 11.875 5.50039C12.5124 5.50039 13.0312 4.98435 13.0312 4.35039Z" fill="#646464"/>
</svg>
