<svg                                
width="30"
height="30"
viewBox="0 0 30 30"
fill="none"
xmlns="http://www.w3.org/2000/svg"
>
<g clip-path="url(#clip0)">
<path
d="M27.9617 15.6731C26.5831 14.3007 24.9894 15.5852 24.9894 15.5852V8.36049C24.9894 8.11787 24.7928 7.92103 24.5501 7.92103C24.3073 7.92103 24.1107 8.11787 24.1107 8.36049V16.2034C24.1107 16.2034 22.0153 17.8553 21.1146 18.259V5.25065C21.1146 4.64594 21.6065 4.15407 22.2112 4.15407H23.0141C23.6188 4.15407 24.1107 4.64594 24.1107 5.25065V6.56147C24.1107 6.80431 24.3073 7.00092 24.5501 7.00092C24.7928 7.00092 24.9894 6.80431 24.9894 6.56147V5.25065C24.9894 4.1614 24.1034 3.27539 23.0141 3.27539H22.2112C21.1219 3.27539 20.2357 4.1614 20.2357 5.25065V18.6074C19.9736 18.6808 19.7047 18.7307 19.4314 18.7571V9.49255C19.4314 8.3978 18.5408 7.50721 17.4463 7.50721H16.6628C15.5683 7.50721 14.6777 8.3978 14.6777 9.49255V13.97L13.8732 14.3971V12.907C13.8732 11.9215 13.0714 11.1197 12.0861 11.1197H10.9069C9.92131 11.1197 9.11976 11.9215 9.11976 12.907V16.9203L7.68489 17.6818L3.65563 18.8333C2.95456 19.0335 2.36908 19.4927 2.00745 20.1258C1.64558 20.7591 1.54739 21.4966 1.73095 22.2022L2.18163 23.9362C2.24251 24.1711 2.48238 24.3118 2.71744 24.2509C2.95228 24.1898 3.09327 23.95 3.03216 23.7149L2.58148 21.9811C2.3201 20.9754 2.89803 19.9637 3.89733 19.6783L7.58121 18.6254L10.35 26.0152C10.5354 26.51 10.5061 27.9218 9.04148 28.442L6.25758 29.0744C5.28734 29.2946 4.3313 28.713 4.0809 27.7499L3.51579 25.5753C3.45467 25.3404 3.2148 25.1994 2.97997 25.2603C2.74491 25.3214 2.60414 25.5613 2.66503 25.7964L3.23037 27.9712C3.54806 29.193 4.63342 30.0003 5.8417 30.0003C6.72953 30.0003 9.23626 29.299 9.23626 29.299C9.99913 29.1259 10.6496 28.6315 11.0206 27.943C11.3269 27.375 11.4177 26.7213 11.2864 26.0985L20.9178 23.7405C21.7143 23.5453 22.4705 23.1669 23.1041 22.6462L27.7911 18.795C29.2201 17.5277 28.3819 16.0912 27.9617 15.6731ZM16.6628 8.38612H17.4463C18.0563 8.38612 18.5525 8.88257 18.5525 9.49255V18.779L15.7796 18.7779C15.5248 18.7756 15.7011 18.6074 15.715 18.5959L16.5136 17.9491C17.2586 17.3455 17.7452 16.5064 17.9597 15.4547C18.0959 14.7875 17.8414 14.1196 17.2959 13.7118C16.7864 13.3309 16.1311 13.2577 15.5566 13.5094V9.49255C15.5566 8.88257 16.0529 8.38612 16.6628 8.38612ZM9.99867 12.907C9.99867 12.4062 10.4061 11.9986 10.9069 11.9986H12.0861C12.5869 11.9986 12.9945 12.4062 12.9945 12.907V14.8635L9.99844 16.4538V12.907H9.99867ZM27.2333 18.1162L22.546 21.9674C22.0137 22.405 21.3783 22.7229 20.7088 22.8868L11.0064 25.2624L8.39718 18.2991L15.8473 14.3444C16.1501 14.1835 16.4951 14.2103 16.7695 14.4156C17.0439 14.6209 17.1671 14.9436 17.0986 15.2792C16.9258 16.1258 16.5429 16.7944 15.9604 17.2661L15.1618 17.9132C14.8345 18.1782 14.7139 18.606 14.8544 19.0031C14.995 19.4 15.358 19.6568 15.7791 19.6568L18.981 19.6582H18.9833C20.1231 19.6582 21.2185 19.3116 22.151 18.6559L25.7294 16.1395C26.2304 15.7871 26.9049 15.8493 27.3329 16.2874C27.5794 16.5392 28.0619 17.2874 27.2333 18.1162Z"
fill="#206C63"
/>
<path
d="M8.66665 26.2967C8.66665 25.342 7.89005 24.5652 6.93538 24.5652C5.9807 24.5652 5.2041 25.342 5.2041 26.2967C5.2041 27.2511 5.9807 28.028 6.93538 28.028C7.89005 28.028 8.66665 27.2511 8.66665 26.2967ZM6.08301 26.2967C6.08301 25.8266 6.46525 25.4441 6.93538 25.4441C7.40527 25.4441 7.78774 25.8266 7.78774 26.2967C7.78774 26.7666 7.4055 27.149 6.93538 27.149C6.46525 27.149 6.08301 26.7666 6.08301 26.2967Z"
fill="#206C63"
/>
<path
d="M3.77597 13.7978L10.1641 7.36042L11.601 8.10361C12.1158 8.3698 12.7422 8.2787 13.1597 7.87678L16.6369 4.5296C16.6369 4.5296 16.5412 6.24874 17.9889 6.24874C18.7342 6.24874 19.3407 5.6422 19.3407 4.89673V1.35178C19.3407 1.34766 19.3405 1.34332 19.3405 1.33897C19.3357 0.41405 18.6593 0 17.9889 0H14.4749C13.7294 0 13.1231 0.60654 13.1231 1.35178C13.1231 2.83769 14.6353 2.70357 14.6353 2.70357L11.9826 5.25699L10.5248 4.50305C9.99771 4.23022 9.36256 4.33024 8.94416 4.75139L1.85702 11.8932C1.33196 12.4224 1.33516 13.28 1.86434 13.8051C2.11932 14.058 2.98999 14.5837 3.77597 13.7978ZM2.48072 12.5124L9.56786 5.37051C9.65942 5.2785 9.80636 5.11737 10.1211 5.28377L11.8585 6.18236C12.0258 6.26888 12.2295 6.23935 12.3653 6.10866L16.0302 2.58089C16.1592 2.4566 16.2 2.26617 16.1329 2.1C16.0659 1.9336 15.9047 1.82489 15.7253 1.82489H14.4749C14.2142 1.82489 14.002 1.61271 14.002 1.35178C14.002 1.09109 14.2142 0.878911 14.4749 0.878911H17.9889C18.1183 0.878911 18.4616 0.878911 18.4616 1.34904C18.4616 1.35293 18.4618 1.35682 18.4618 1.36094V4.89673C18.4618 5.15742 18.2496 5.3696 17.9889 5.3696C17.728 5.3696 17.5158 5.15742 17.5158 4.89673V3.49665C17.5158 3.32041 17.4105 3.16111 17.2485 3.09221C17.0864 3.02309 16.8988 3.05788 16.7717 3.1801L12.5502 7.24369C12.4042 7.38423 12.1849 7.41627 12.005 7.32312L10.2815 6.43162C10.111 6.3435 9.90295 6.37623 9.76768 6.51241L3.15227 13.1786C2.86388 13.467 2.57251 13.2697 2.48324 13.1812C2.29831 12.9974 2.29716 12.6973 2.48072 12.5124Z"
fill="#206C63"
/>
</g>
<defs>
<clipPath id="clip0">
<rect width="30" height="30" fill="white" />
</clipPath>
</defs>
</svg>
								