<svg width="34" height="34" viewBox="0 0 34 34" fill="none" xmlns="http://www.w3.org/2000/svg">
<path d="M15.7962 4.81815L10.5262 13.4315C9.94542 14.3665 10.6254 15.5848 11.7304 15.5848H22.2562C23.3612 15.5848 24.0412 14.3665 23.4604 13.4315L18.2046 4.81815C18.0794 4.6108 17.9027 4.4393 17.6917 4.32026C17.4808 4.20122 17.2426 4.13867 17.0004 4.13867C16.7582 4.13867 16.5201 4.20122 16.3091 4.32026C16.0981 4.4393 15.9215 4.6108 15.7962 4.81815Z" fill="#646464"/>
<path d="M24.7916 31.166C28.3124 31.166 31.1666 28.3118 31.1666 24.791C31.1666 21.2702 28.3124 18.416 24.7916 18.416C21.2708 18.416 18.4166 21.2702 18.4166 24.791C18.4166 28.3118 21.2708 31.166 24.7916 31.166Z" fill="#646464"/>
<path d="M5.66667 30.4583H14.1667C14.9458 30.4583 15.5833 29.8208 15.5833 29.0417V20.5417C15.5833 19.7625 14.9458 19.125 14.1667 19.125H5.66667C4.8875 19.125 4.25 19.7625 4.25 20.5417V29.0417C4.25 29.8208 4.8875 30.4583 5.66667 30.4583Z" fill="#646464"/>
</svg>
