<svg width="33" height="33" viewBox="0 0 33 33" fill="none" xmlns="http://www.w3.org/2000/svg">
<path d="M16.5166 12.5871C15.5531 12.5871 14.6507 12.9609 13.9675 13.6441C13.2875 14.3273 12.9105 15.2296 12.9105 16.1932C12.9105 17.1568 13.2875 18.0591 13.9675 18.7423C14.6507 19.4223 15.5531 19.7994 16.5166 19.7994C17.4802 19.7994 18.3825 19.4223 19.0658 18.7423C19.7457 18.0591 20.1228 17.1568 20.1228 16.1932C20.1228 15.2296 19.7457 14.3273 19.0658 13.6441C18.7321 13.3078 18.3349 13.0412 17.8973 12.8598C17.4597 12.6783 16.9904 12.5856 16.5166 12.5871ZM29.8036 20.1764L27.696 18.375C27.7959 17.7626 27.8475 17.1375 27.8475 16.5155C27.8475 15.8935 27.7959 15.2651 27.696 14.656L29.8036 12.8545C29.9629 12.7182 30.0768 12.5367 30.1303 12.3341C30.1839 12.1314 30.1745 11.9173 30.1033 11.7202L30.0743 11.6364C29.4943 10.0144 28.6252 8.5109 27.5091 7.19878L27.4511 7.1311C27.3156 6.97175 27.1349 6.8572 26.933 6.80255C26.7311 6.74789 26.5173 6.75571 26.32 6.82495L23.7032 7.7563C22.7364 6.96353 21.66 6.33833 20.4934 5.90327L19.9874 3.16724C19.9493 2.96112 19.8493 2.7715 19.7008 2.62357C19.5523 2.47563 19.3622 2.37639 19.156 2.33901L19.069 2.3229C17.3932 2.01997 15.6272 2.01997 13.9514 2.3229L13.8644 2.33901C13.6581 2.37639 13.4681 2.47563 13.3196 2.62357C13.1711 2.7715 13.0711 2.96112 13.0329 3.16724L12.5238 5.91616C11.3682 6.35469 10.2917 6.97837 9.33655 7.76274L6.70042 6.82495C6.50308 6.75516 6.28918 6.74706 6.08713 6.80175C5.88509 6.85643 5.70446 6.97131 5.56927 7.1311L5.51126 7.19878C4.39716 8.5123 3.52827 10.0154 2.94603 11.6364L2.91702 11.7202C2.772 12.123 2.89124 12.5742 3.21673 12.8545L5.35013 14.6753C5.25023 15.2812 5.20189 15.9 5.20189 16.5123C5.20189 17.131 5.25023 17.7498 5.35013 18.3492L3.22318 20.17C3.06396 20.3063 2.95001 20.4878 2.89648 20.6904C2.84294 20.8931 2.85235 21.1072 2.92347 21.3043L2.95247 21.3881C3.53577 23.0091 4.39622 24.5077 5.51771 25.8257L5.57571 25.8934C5.71124 26.0528 5.89187 26.1673 6.0938 26.222C6.29572 26.2766 6.50947 26.2688 6.70687 26.1996L9.343 25.2618C10.3034 26.0513 11.3733 26.6765 12.5302 27.1084L13.0394 29.8573C13.0776 30.0634 13.1775 30.253 13.3261 30.4009C13.4746 30.5489 13.6646 30.6481 13.8708 30.6855L13.9578 30.7016C15.6501 31.0062 17.3832 31.0062 19.0754 30.7016L19.1624 30.6855C19.3687 30.6481 19.5587 30.5489 19.7072 30.4009C19.8557 30.253 19.9557 30.0634 19.9939 29.8573L20.4998 27.1212C21.6664 26.683 22.7428 26.061 23.7096 25.2682L26.3264 26.1996C26.5237 26.2694 26.7376 26.2775 26.9397 26.2228C27.1417 26.1681 27.3224 26.0532 27.4575 25.8934L27.5156 25.8257C28.637 24.5012 29.4975 23.0091 30.0808 21.3881L30.1098 21.3043C30.2484 20.9047 30.1291 20.4568 29.8036 20.1764ZM16.5166 21.8586C13.3874 21.8586 10.8512 19.3224 10.8512 16.1932C10.8512 13.064 13.3874 10.5278 16.5166 10.5278C19.6458 10.5278 22.1821 13.064 22.1821 16.1932C22.1821 19.3224 19.6458 21.8586 16.5166 21.8586Z" fill="black"/>
</svg>
