<svg
width="16"
height="16"
viewBox="0 0 16 16"
fill="none"
xmlns="http://www.w3.org/2000/svg"
>
<path
d="M8.96875 4.71875C8.19334 4.71875 7.5625 5.34959 7.5625 6.125C7.5625 6.90041 8.19334 7.53125 8.96875 7.53125C9.74416 7.53125 10.375 6.90041 10.375 6.125C10.375 5.34959 9.74416 4.71875 8.96875 4.71875ZM8.96875 6.59375C8.71028 6.59375 8.5 6.38347 8.5 6.125C8.5 5.86653 8.71028 5.65625 8.96875 5.65625C9.22722 5.65625 9.4375 5.86653 9.4375 6.125C9.4375 6.38347 9.22722 6.59375 8.96875 6.59375Z"
fill="#0C9B2B"
/>
<path
d="M12.7188 8.46875C11.9433 8.46875 11.3125 9.09959 11.3125 9.875C11.3125 10.6504 11.9433 11.2812 12.7188 11.2812C13.4942 11.2812 14.125 10.6504 14.125 9.875C14.125 9.09959 13.4942 8.46875 12.7188 8.46875ZM12.7188 10.3438C12.4603 10.3438 12.25 10.1335 12.25 9.875C12.25 9.61653 12.4603 9.40625 12.7188 9.40625C12.9772 9.40625 13.1875 9.61653 13.1875 9.875C13.1875 10.1335 12.9772 10.3438 12.7188 10.3438Z"
fill="#0C9B2B"
/>
<path
d="M12.9793 4.7975C12.7639 4.65394 12.4728 4.71213 12.3293 4.92753L8.57925 10.5525C8.43566 10.7679 8.49388 11.0589 8.70928 11.2026C8.92466 11.3461 9.21569 11.288 9.35932 11.0725L13.1093 5.44753C13.2529 5.23213 13.1947 4.9411 12.9793 4.7975Z"
fill="#0C9B2B"
/>
<path
d="M15.5312 2.84375H0.46875C0.209875 2.84375 0 3.05362 0 3.3125V6.125C0 6.38387 0.209875 6.59375 0.46875 6.59375C1.24416 6.59375 1.875 7.22459 1.875 8C1.875 8.77541 1.24416 9.40625 0.46875 9.40625C0.209875 9.40625 0 9.61613 0 9.875V12.6875C0 12.9464 0.209875 13.1562 0.46875 13.1562H15.5312C15.7901 13.1562 16 12.9464 16 12.6875V3.3125C16 3.05362 15.7901 2.84375 15.5312 2.84375ZM15.0625 12.2188H4.6875V11.75C4.6875 11.4911 4.47762 11.2812 4.21875 11.2812C3.95988 11.2812 3.75 11.4911 3.75 11.75V12.2188H0.9375V10.2967C2.00597 10.0789 2.8125 9.13184 2.8125 8C2.8125 6.86816 2.00597 5.92113 0.9375 5.70334V3.78125H3.78906V4.25C3.78906 4.50888 3.99894 4.71875 4.25781 4.71875C4.51669 4.71875 4.72656 4.50888 4.72656 4.25V3.78125H15.0625V12.2188Z"
fill="#0C9B2B"
/>
<path
d="M4.21875 8.46875C3.95987 8.46875 3.75 8.67862 3.75 8.9375V9.875C3.75 10.1339 3.95987 10.3438 4.21875 10.3438C4.47763 10.3438 4.6875 10.1339 4.6875 9.875V8.9375C4.6875 8.67862 4.47763 8.46875 4.21875 8.46875Z"
fill="#0C9B2B"
/>
<path
d="M4.21875 5.65625C3.95987 5.65625 3.75 5.86612 3.75 6.125V7.0625C3.75 7.32138 3.95987 7.53125 4.21875 7.53125C4.47763 7.53125 4.6875 7.32138 4.6875 7.0625V6.125C4.6875 5.86612 4.47763 5.65625 4.21875 5.65625Z"
fill="#0C9B2B"
/>
</svg>
