<svg width="25" height="25" viewBox="0 0 25 25" fill="none" xmlns="http://www.w3.org/2000/svg">
<path d="M1.5 13.875H9.75C10.5063 13.875 11.125 13.2563 11.125 12.5V1.5C11.125 0.74375 10.5063 0.125 9.75 0.125H1.5C0.74375 0.125 0.125 0.74375 0.125 1.5V12.5C0.125 13.2563 0.74375 13.875 1.5 13.875ZM1.5 24.875H9.75C10.5063 24.875 11.125 24.2563 11.125 23.5V18C11.125 17.2437 10.5063 16.625 9.75 16.625H1.5C0.74375 16.625 0.125 17.2437 0.125 18V23.5C0.125 24.2563 0.74375 24.875 1.5 24.875ZM15.25 24.875H23.5C24.2563 24.875 24.875 24.2563 24.875 23.5V12.5C24.875 11.7437 24.2563 11.125 23.5 11.125H15.25C14.4937 11.125 13.875 11.7437 13.875 12.5V23.5C13.875 24.2563 14.4937 24.875 15.25 24.875ZM13.875 1.5V7C13.875 7.75625 14.4937 8.375 15.25 8.375H23.5C24.2563 8.375 24.875 7.75625 24.875 7V1.5C24.875 0.74375 24.2563 0.125 23.5 0.125H15.25C14.4937 0.125 13.875 0.74375 13.875 1.5Z" fill="#646464"/>
</svg>
