<svg width="18" height="12" viewBox="0 0 18 12" fill="none" xmlns="http://www.w3.org/2000/svg">
<path d="M17.9418 0.798688C17.9032 0.705666 17.8472 0.622488 17.7777 0.552879C17.7731 0.548344 17.7686 0.547571 17.7648 0.543809C17.6967 0.479509 17.6188 0.425827 17.5311 0.389511C17.4593 0.360015 17.3837 0.350945 17.308 0.344125C17.2854 0.342613 17.2664 0.332031 17.2437 0.332031H11.1934C10.7752 0.332031 10.4371 0.670088 10.4371 1.08834C10.4371 1.50658 10.7752 1.84464 11.1934 1.84464H15.4256L9.43878 7.86548L7.16083 4.9492C7.02924 4.78056 6.83336 4.67619 6.62161 4.6603C6.40154 4.6444 6.19883 4.71929 6.04457 4.86525L0.23625 10.3643C-0.0670385 10.6517 -0.0798703 11.1304 0.206754 11.4337C0.356517 11.5902 0.556167 11.6689 0.756589 11.6689C0.943407 11.6689 1.13019 11.6 1.27616 11.4624L6.48018 6.53515L8.77402 9.47181C8.9079 9.64348 9.10832 9.74863 9.32537 9.76146C9.54242 9.77355 9.75342 9.6934 9.90695 9.53987L16.4874 2.92157V7.13867C16.4874 7.55688 16.8255 7.89497 17.2437 7.89497C17.6619 7.89497 18 7.55691 18 7.13867V1.08837V1.0876C17.9993 0.988529 17.9796 0.890972 17.9418 0.798688Z" fill="#038920"/>
</svg>
