<svg width="26" height="28" viewBox="0 0 26 28" fill="none" xmlns="http://www.w3.org/2000/svg">
<path d="M10.6958 0.750175C11.2707 0.265706 11.9982 0 12.75 0C13.5018 0 14.2293 0.265706 14.8042 0.750175L24.3667 8.81809C25.0863 9.42301 25.5 10.3141 25.5 11.2548V25.1409C25.5 25.7984 25.2388 26.429 24.7739 26.894C24.3089 27.3589 23.6783 27.6201 23.0208 27.6201H18.7708C18.1133 27.6201 17.4827 27.3589 17.0178 26.894C16.5529 26.429 16.2917 25.7984 16.2917 25.1409V18.0576C16.2917 17.7758 16.1797 17.5055 15.9805 17.3063C15.7812 17.107 15.511 16.9951 15.2292 16.9951H10.2708C9.98904 16.9951 9.71879 17.107 9.51953 17.3063C9.32028 17.5055 9.20833 17.7758 9.20833 18.0576V25.1409C9.20833 25.7984 8.94714 26.429 8.4822 26.894C8.01727 27.3589 7.38668 27.6201 6.72917 27.6201H2.47917C2.1536 27.6201 1.83122 27.556 1.53043 27.4314C1.22964 27.3068 0.956343 27.1242 0.726131 26.894C0.495919 26.6637 0.313305 26.3904 0.188715 26.0897C0.0641256 25.7889 0 25.4665 0 25.1409V11.2533C0 10.3141 0.413667 9.42301 1.13333 8.81667L10.6958 0.750175Z" fill="#646464"/>
</svg>
