<svg
width="12"
height="12"
viewBox="0 0 12 12"
fill="none"
xmlns="http://www.w3.org/2000/svg"
>
<path
d="M6.00219 0C3.60583 0 1.65625 1.94958 1.65625 4.34592C1.65625 7.31986 5.54544 11.6858 5.71103 11.8702C5.86656 12.0434 6.13811 12.0431 6.29336 11.8702C6.45894 11.6858 10.3481 7.31986 10.3481 4.34592C10.3481 1.94958 8.39854 0 6.00219 0ZM6.00219 11.0093C4.69328 9.45448 2.43887 6.387 2.43887 4.34597C2.43887 2.38111 4.03736 0.782625 6.00219 0.782625C7.96703 0.782625 9.56551 2.38111 9.56551 4.34594C9.56549 6.38707 7.31144 9.45398 6.00219 11.0093Z"
fill="#1280BE"
/>
<path
d="M5.99903 2.15918C4.79336 2.15918 3.8125 3.14006 3.8125 4.34573C3.8125 5.55141 4.79338 6.53229 5.99903 6.53229C7.20467 6.53229 8.18553 5.55141 8.18553 4.34573C8.18553 3.14006 7.20467 2.15918 5.99903 2.15918ZM5.99903 5.74966C5.22489 5.74966 4.59512 5.11987 4.59512 4.34573C4.59512 3.57159 5.22491 2.9418 5.99903 2.9418C6.77314 2.9418 7.40293 3.57159 7.40293 4.34573C7.40293 5.11987 6.77314 5.74966 5.99903 5.74966Z"
fill="#1280BE"
/>
</svg>
														