<svg width="35" height="35" viewBox="0 0 35 35" fill="none" xmlns="http://www.w3.org/2000/svg">
<path d="M27.7083 4.375H7.29167C5.6875 4.375 4.375 5.6875 4.375 7.29167V27.7083C4.375 29.3125 5.6875 30.625 7.29167 30.625H27.7083C29.3125 30.625 30.625 29.3125 30.625 27.7083V7.29167C30.625 5.6875 29.3125 4.375 27.7083 4.375ZM11.6667 24.7917C10.8646 24.7917 10.2083 24.1354 10.2083 23.3333V18.9583C10.2083 18.1562 10.8646 17.5 11.6667 17.5C12.4688 17.5 13.125 18.1562 13.125 18.9583V23.3333C13.125 24.1354 12.4688 24.7917 11.6667 24.7917ZM17.5 24.7917C16.6979 24.7917 16.0417 24.1354 16.0417 23.3333V21.875C16.0417 21.0729 16.6979 20.4167 17.5 20.4167C18.3021 20.4167 18.9583 21.0729 18.9583 21.875V23.3333C18.9583 24.1354 18.3021 24.7917 17.5 24.7917ZM17.5 17.5C16.6979 17.5 16.0417 16.8438 16.0417 16.0417C16.0417 15.2396 16.6979 14.5833 17.5 14.5833C18.3021 14.5833 18.9583 15.2396 18.9583 16.0417C18.9583 16.8438 18.3021 17.5 17.5 17.5ZM23.3333 24.7917C22.5312 24.7917 21.875 24.1354 21.875 23.3333V11.6667C21.875 10.8646 22.5312 10.2083 23.3333 10.2083C24.1354 10.2083 24.7917 10.8646 24.7917 11.6667V23.3333C24.7917 24.1354 24.1354 24.7917 23.3333 24.7917Z" fill="#646464"/>
</svg>
