<svg
										width="10"
										height="10"
										viewBox="0 0 10 10"
										fill="none"
										xmlns="http://www.w3.org/2000/svg"
									>
										<path
											d="M10.0002 5.00012C10.0002 5.48346 9.60852 5.87516 9.12492 5.87516H5.87528V9.12496C5.87528 9.60843 5.48345 10.0001 5.00017 10C4.75849 10 4.53974 9.9022 4.38153 9.74391C4.22312 9.58539 4.12519 9.36674 4.1253 9.12519L4.12517 5.87503H0.875141C0.633613 5.87503 0.415031 5.77724 0.256494 5.6187C0.0983493 5.46056 0.000488314 5.2418 0.000488314 5.00012C0.000357687 4.51687 0.392063 4.12507 0.875599 4.12507H4.1253V0.875241C4.1253 0.391836 4.51723 0 5.00054 0C5.48369 0.000130626 5.87526 0.391575 5.87552 0.874914V4.12507H9.12555C9.60878 4.12534 9.99999 4.51687 10.0002 5.00012Z"
											fill="#323232"
										/>
									</svg>