<svg
										width="8"
										height="8"
										viewBox="0 0 8 8"
										fill="none"
										xmlns="http://www.w3.org/2000/svg"
									>
										<path
											d="M7.75122 2.16035L5.86997 0.279102C5.74653 0.155664 5.5481 0.155664 5.42466 0.279102L3.54497 2.16035C3.42153 2.28379 3.42153 2.48223 3.54497 2.60566C3.66841 2.7291 3.86685 2.7291 3.99028 2.60566L5.32935 1.2666V6.7791C5.32935 6.95566 5.47153 7.09785 5.6481 7.09785C5.82466 7.09785 5.96685 6.95566 5.96685 6.7791V1.2666L7.30591 2.60566C7.42935 2.7291 7.62779 2.7291 7.75122 2.60566C7.87466 2.48379 7.87466 2.28379 7.75122 2.16035Z"
											fill="#686868"
										/>
										<path
											d="M4.48559 5.42432C4.36216 5.30088 4.16372 5.30088 4.04028 5.42432L2.70122 6.76338V1.25088C2.70122 1.07432 2.55903 0.932129 2.38247 0.932129C2.20591 0.932129 2.06372 1.07432 2.06372 1.25088V6.76338L0.724658 5.42432C0.601221 5.30088 0.402783 5.30088 0.279346 5.42432C0.155908 5.54775 0.155908 5.74619 0.279346 5.86963L2.1606 7.75088C2.28403 7.87432 2.48247 7.87432 2.60591 7.75088L4.48716 5.86963C4.60903 5.74619 4.60903 5.54619 4.48559 5.42432Z"
											fill="#686868"
										/>
									</svg>