<svg
								width="15"
								height="15"
								viewBox="0 0 15 15"
								fill="none"
								xmlns="http://www.w3.org/2000/svg"
							>
								<path
									d="M8.82581 0.549173C9.55804 1.2814 9.55804 2.46859 8.82581 3.20082C8.09358 3.93305 6.9064 3.93305 6.17417 3.20082C5.44194 2.46859 5.44194 1.2814 6.17417 0.549173C6.90637 -0.183058 8.09356 -0.183058 8.82581 0.549173Z"
									fill="#676363"
								/>
								<path
									d="M8.82581 6.1742C9.55804 6.90643 9.55804 8.09362 8.82581 8.82585C8.09358 9.55807 6.9064 9.55807 6.17417 8.82585C5.44194 8.09362 5.44194 6.90643 6.17417 6.1742C6.90637 5.44197 8.09356 5.44197 8.82581 6.1742Z"
									fill="#676363"
								/>
								<path
									d="M8.82581 11.7991C9.55804 12.5314 9.55804 13.7186 8.82581 14.4508C8.09358 15.183 6.9064 15.183 6.17417 14.4508C5.44194 13.7186 5.44194 12.5314 6.17417 11.7991C6.90637 11.0669 8.09356 11.0669 8.82581 11.7991Z"
									fill="#676363"
								/>
							</svg>