<svg width="32" height="32" viewBox="0 0 32 32" fill="none" xmlns="http://www.w3.org/2000/svg">
<path d="M30.75 14.75H1.25C0.559625 14.75 0 15.3096 0 16C0 16.6904 0.559625 17.25 1.25 17.25H30.75C31.4404 17.25 32 16.6904 32 16C32 15.3096 31.4404 14.75 30.75 14.75Z" fill="#E84600"/>
<path d="M30.75 4.75H1.25C0.559625 4.75 0 5.30963 0 6C0 6.69037 0.559625 7.25 1.25 7.25H30.75C31.4404 7.25 32 6.69037 32 6C32 5.30963 31.4404 4.75 30.75 4.75Z" fill="#E84600"/>
<path d="M30.75 24.75H1.25C0.559625 24.75 0 25.3096 0 26C0 26.6904 0.559625 27.25 1.25 27.25H30.75C31.4404 27.25 32 26.6904 32 26C32 25.3096 31.4404 24.75 30.75 24.75Z" fill="#E84600"/>
</svg>
