<svg
										width="20"
										height="20"
										viewBox="0 0 39 39"
										fill="none"
										xmlns="http://www.w3.org/2000/svg"
									>
										<path
											d="M20.7106 4.74672C20.0874 4.11568 19.1527 4.11568 18.5295 4.74672L9.18221 14.2125C8.55906 14.8435 8.55906 15.7901 9.18221 16.4211C9.49379 16.7367 9.88326 16.8944 10.2727 16.8944C10.6622 16.8944 11.0517 16.7367 11.3632 16.4211L20.7106 6.9554C21.3337 6.32435 21.3337 5.37777 20.7106 4.74672Z"
											fill="#2E7D32"
										/>
										<path
											d="M30.0582 14.2125L20.7109 4.74672C20.0877 4.11568 19.153 4.11568 18.5299 4.74672C17.9067 5.37777 17.9067 6.32435 18.5299 6.9554L27.8772 16.4211C28.1887 16.7367 28.5782 16.8944 28.9677 16.8944C29.3572 16.8944 29.7466 16.7367 30.0582 16.4211C30.6814 15.7901 30.6814 14.8435 30.0582 14.2125Z"
											fill="#1B5E20"
										/>
										<path
											d="M30.058 32.6708H9.18239C8.40345 32.6708 7.78029 32.1186 7.62451 31.4087L4.82031 16.8945H34.4201L31.538 31.4087C31.3822 32.1186 30.7591 32.6708 30.058 32.6708Z"
											fill="#388E3C"
										/>
										<path
											d="M34.4194 18.4721H4.8196C3.96277 18.4721 3.26172 17.7622 3.26172 16.8945V15.3169C3.26172 14.4492 3.96277 13.7393 4.8196 13.7393H34.4194C35.2763 13.7393 35.9773 14.4492 35.9773 15.3169V16.8945C35.9773 17.7622 35.2763 18.4721 34.4194 18.4721Z"
											fill="#4CAF50"
										/>
										<path
											d="M24.9174 19.8916L18.7637 26.1232L15.8816 23.1257L14.168 24.8611L18.7637 29.5151L26.631 21.5481L24.9174 19.8916Z"
											fill="#DCEDC8"
										/>
									</svg>