<svg
										width="15"
										height="17"
										viewBox="0 0 15 17"
										fill="none"
										xmlns="http://www.w3.org/2000/svg"
									>
										<path
											d="M7.75 0.875C8.3726 0.874959 8.97162 1.11317 9.42417 1.54075C9.87673 1.96834 10.1485 2.5529 10.1838 3.1745L10.1875 3.3125H14.125C14.2675 3.31254 14.4047 3.36668 14.5088 3.46398C14.613 3.56128 14.6763 3.69447 14.686 3.83666C14.6957 3.97885 14.6511 4.11942 14.5612 4.22997C14.4712 4.34053 14.3427 4.41282 14.2015 4.43225L14.125 4.4375H13.528L12.568 14.2025C12.5199 14.6893 12.3003 15.1432 11.9485 15.4831C11.5966 15.823 11.1355 16.0267 10.6473 16.058L10.5153 16.0625H4.98475C4.49535 16.0625 4.02189 15.8884 3.649 15.5715C3.27612 15.2545 3.02809 14.8153 2.94925 14.3323L2.932 14.2017L1.97125 4.4375H1.375C1.23907 4.43749 1.10774 4.38827 1.0053 4.29892C0.902861 4.20958 0.836236 4.08617 0.81775 3.9515L0.8125 3.875C0.812506 3.73907 0.861732 3.60774 0.951075 3.5053C1.04042 3.40286 1.16383 3.33624 1.2985 3.31775L1.375 3.3125H5.3125C5.3125 2.66603 5.56931 2.04605 6.02643 1.58893C6.48355 1.13181 7.10354 0.875 7.75 0.875ZM12.3978 4.4375H3.1015L4.05175 14.0915C4.07279 14.3069 4.16772 14.5084 4.32042 14.6618C4.47312 14.8152 4.67419 14.911 4.8895 14.933L4.98475 14.9375H10.5153C10.9653 14.9375 11.347 14.6187 11.434 14.186L11.449 14.0915L12.397 4.4375H12.3978ZM9.0625 6.5C9.19843 6.50001 9.32976 6.54923 9.4322 6.63858C9.53464 6.72792 9.60126 6.85133 9.61975 6.986L9.625 7.0625V12.3125C9.62496 12.455 9.57082 12.5922 9.47352 12.6963C9.37623 12.8005 9.24303 12.8638 9.10084 12.8735C8.95866 12.8832 8.81808 12.8386 8.70753 12.7487C8.59697 12.6587 8.52468 12.5302 8.50525 12.389L8.5 12.3125V7.0625C8.5 6.91332 8.55926 6.77024 8.66475 6.66475C8.77024 6.55926 8.91332 6.5 9.0625 6.5ZM6.4375 6.5C6.57343 6.50001 6.70476 6.54923 6.8072 6.63858C6.90964 6.72792 6.97626 6.85133 6.99475 6.986L7 7.0625V12.3125C6.99996 12.455 6.94582 12.5922 6.84852 12.6963C6.75122 12.8005 6.61803 12.8638 6.47584 12.8735C6.33365 12.8832 6.19308 12.8386 6.08253 12.7487C5.97197 12.6587 5.89968 12.5302 5.88025 12.389L5.875 12.3125V7.0625C5.875 6.91332 5.93426 6.77024 6.03975 6.66475C6.14524 6.55926 6.28832 6.5 6.4375 6.5ZM7.75 2C7.42061 2.00001 7.10326 2.12388 6.86096 2.34701C6.61865 2.57014 6.4691 2.87622 6.442 3.2045L6.4375 3.3125H9.0625C9.0625 2.9644 8.92422 2.63056 8.67808 2.38442C8.43194 2.13828 8.0981 2 7.75 2Z"
											fill="#323232"
										/>
									</svg>