<svg
width="170"
height="170"
viewBox="0 0 175 175"
fill="none"
xmlns="http://www.w3.org/2000/svg"
>
<path
d="M161.469 40.7572C150.01 22.6243 132.29 9.33206 111.675 3.40579C91.0595 -2.52047 68.9856 -0.667874 49.6466 8.61164C30.3077 17.8912 15.051 33.951 6.77497 53.7403C-1.50102 73.5295 -2.21966 95.6693 4.75556 115.954L87.5 87.5L161.469 40.7572Z"
fill="#A8E4FF"
/>
<path
d="M39.6979 160.789C53.0134 169.473 68.4433 174.367 84.3303 174.943C100.217 175.518 115.961 171.755 129.87 164.057L87.5 87.5L39.6979 160.789Z"
fill="#EF9A9A"
/>
<path
d="M129.297 164.372C139.871 158.622 149.145 150.753 156.54 141.257C163.934 131.76 169.29 120.84 172.272 109.18C175.254 97.5191 175.798 85.3687 173.871 73.4881C171.943 61.6076 167.586 50.2524 161.07 40.1326L87.5 87.5L129.297 164.372Z"
fill="#FFE082"
/>
<path
d="M3.87516 113.251C9.94862 132.974 22.7977 149.916 40.1522 161.083L87.5 87.5L3.87516 113.251Z"
fill="#B39DDB"
/>
<path
d="M33.3535 116.41V125H31.9941V118.074C31.748 118.25 31.4824 118.4 31.1973 118.525C30.916 118.646 30.5938 118.754 30.2305 118.847V117.687C30.457 117.613 30.6758 117.535 30.8867 117.453C31.0977 117.371 31.3047 117.279 31.5078 117.177C31.7148 117.076 31.9219 116.963 32.1289 116.838C32.3398 116.713 32.5566 116.57 32.7793 116.41H33.3535ZM38.1816 116.41V125H36.8223V118.074C36.5762 118.25 36.3105 118.4 36.0254 118.525C35.7441 118.646 35.4219 118.754 35.0586 118.847V117.687C35.2852 117.613 35.5039 117.535 35.7148 117.453C35.9258 117.371 36.1328 117.279 36.3359 117.177C36.543 117.076 36.75 116.963 36.957 116.838C37.168 116.713 37.3848 116.57 37.6074 116.41H38.1816ZM40.8535 125.129C40.6191 125.129 40.4199 125.052 40.2559 124.9C40.0918 124.744 40.0098 124.558 40.0098 124.343C40.0098 124.125 40.0918 123.937 40.2559 123.781C40.4199 123.625 40.6191 123.547 40.8535 123.547C41.0918 123.547 41.293 123.625 41.457 123.781C41.625 123.937 41.709 124.125 41.709 124.343C41.709 124.558 41.625 124.744 41.457 124.9C41.293 125.052 41.0918 125.129 40.8535 125.129ZM45.9043 116.41V125H44.5449V118.074C44.2988 118.25 44.0332 118.4 43.748 118.525C43.4668 118.646 43.1445 118.754 42.7812 118.847V117.687C43.0078 117.613 43.2266 117.535 43.4375 117.453C43.6484 117.371 43.8555 117.279 44.0586 117.177C44.2656 117.076 44.4727 116.963 44.6797 116.838C44.8906 116.713 45.1074 116.57 45.3301 116.41H45.9043ZM49.5664 120.816C48.9727 120.816 48.5 120.627 48.1484 120.248C47.7969 119.865 47.6211 119.355 47.6211 118.718C47.6211 118.023 47.8066 117.476 48.1777 117.078C48.5527 116.675 49.0566 116.474 49.6895 116.474C50.3027 116.474 50.7773 116.66 51.1133 117.031C51.4531 117.402 51.623 117.923 51.623 118.595C51.623 119.267 51.4336 119.806 51.0547 120.213C50.6758 120.615 50.1797 120.816 49.5664 120.816ZM49.6484 117.295C49.3281 117.295 49.0742 117.418 48.8867 117.664C48.7031 117.91 48.6113 118.248 48.6113 118.677C48.6113 119.099 48.7012 119.427 48.8809 119.662C49.0645 119.896 49.3145 120.013 49.6309 120.013C49.9473 120.013 50.1953 119.892 50.375 119.65C50.5547 119.404 50.6445 119.064 50.6445 118.63C50.6445 118.209 50.5547 117.88 50.375 117.646C50.1992 117.412 49.957 117.295 49.6484 117.295ZM55.2559 116.597L49.8652 125.058H49.0273L54.4121 116.597H55.2559ZM54.5 125.129C53.9062 125.129 53.4336 124.939 53.082 124.56C52.7305 124.177 52.5547 123.668 52.5547 123.031C52.5547 122.336 52.7402 121.789 53.1113 121.39C53.4863 120.988 53.9902 120.787 54.623 120.787C55.2363 120.787 55.7109 120.972 56.0469 121.343C56.3867 121.714 56.5566 122.236 56.5566 122.908C56.5566 123.58 56.3672 124.119 55.9883 124.525C55.6094 124.927 55.1133 125.129 54.5 125.129ZM54.582 121.607C54.2617 121.607 54.0078 121.73 53.8203 121.976C53.6367 122.222 53.5449 122.56 53.5449 122.99C53.5449 123.412 53.6348 123.74 53.8145 123.974C53.998 124.209 54.248 124.326 54.5645 124.326C54.8809 124.326 55.1289 124.205 55.3086 123.963C55.4883 123.716 55.5781 123.377 55.5781 122.943C55.5781 122.521 55.4883 122.193 55.3086 121.959C55.1328 121.724 54.8906 121.607 54.582 121.607Z"
fill="#323232"
/>
<path
d="M67.5508 44.8481V50.2739H68.7988V51.4048H67.5508V53.2505H66.2324V51.4048H62.4297V50.2622C62.7734 49.8755 63.125 49.4575 63.4844 49.0083C63.8477 48.5552 64.1953 48.0942 64.5273 47.6255C64.8633 47.1528 65.1738 46.6802 65.459 46.2075C65.7441 45.7349 65.9844 45.2817 66.1797 44.8481H67.5508ZM66.2324 50.2739V46.7466C65.8066 47.5122 65.3848 48.1802 64.9668 48.7505C64.5527 49.3208 64.1641 49.8286 63.8008 50.2739H66.2324ZM75.2793 50.5493C75.2793 50.9712 75.209 51.356 75.0684 51.7036C74.9316 52.0513 74.7402 52.3521 74.4941 52.606C74.248 52.856 73.9551 53.0513 73.6152 53.1919C73.2793 53.3286 72.9141 53.397 72.5195 53.397C72.0977 53.397 71.709 53.3149 71.3535 53.1509C71.002 52.9868 70.6973 52.7427 70.4395 52.4185C70.1855 52.0942 69.9883 51.6919 69.8477 51.2114C69.707 50.7271 69.6367 50.1665 69.6367 49.5298C69.6367 48.7524 69.7285 48.063 69.9121 47.4614C70.0996 46.8599 70.3555 46.356 70.6797 45.9497C71.0039 45.5435 71.3848 45.2349 71.8223 45.0239C72.2598 44.813 72.7324 44.7075 73.2402 44.7075C73.5566 44.7075 73.8438 44.729 74.1016 44.772C74.3633 44.8149 74.5723 44.8735 74.7285 44.9478V46.1724C74.5293 46.0708 74.3164 45.9849 74.0898 45.9146C73.8633 45.8442 73.6035 45.8091 73.3105 45.8091C72.9824 45.8091 72.6797 45.8755 72.4023 46.0083C72.125 46.1411 71.8848 46.3364 71.6816 46.5942C71.4824 46.8481 71.3242 47.1646 71.207 47.5435C71.0938 47.9185 71.0352 48.3521 71.0312 48.8442H71.0664C71.2461 48.5669 71.4883 48.3481 71.793 48.188C72.1016 48.0278 72.4629 47.9478 72.877 47.9478C73.2441 47.9478 73.5742 48.0083 73.8672 48.1294C74.1641 48.2466 74.416 48.4185 74.623 48.645C74.834 48.8677 74.9961 49.1411 75.1094 49.4653C75.2227 49.7856 75.2793 50.147 75.2793 50.5493ZM73.9082 50.6606C73.9082 50.4185 73.8789 50.1978 73.8203 49.9985C73.7656 49.7993 73.6797 49.6294 73.5625 49.4888C73.4492 49.3442 73.3047 49.2329 73.1289 49.1548C72.957 49.0767 72.7539 49.0376 72.5195 49.0376C72.2852 49.0376 72.0781 49.0806 71.8984 49.1665C71.7227 49.2485 71.5742 49.3579 71.4531 49.4946C71.332 49.6313 71.2402 49.7876 71.1777 49.9634C71.1191 50.1392 71.0898 50.3188 71.0898 50.5024C71.0898 50.7017 71.1172 50.9067 71.1719 51.1177C71.2305 51.3247 71.3184 51.5142 71.4355 51.686C71.5527 51.8579 71.7012 52.0005 71.8809 52.1138C72.0645 52.2231 72.2812 52.2778 72.5312 52.2778C72.7539 52.2778 72.9512 52.2368 73.123 52.1548C73.2949 52.0728 73.4375 51.9595 73.5508 51.8149C73.668 51.6704 73.7559 51.5005 73.8145 51.3052C73.877 51.106 73.9082 50.8911 73.9082 50.6606ZM77.1895 53.3794C76.9551 53.3794 76.7559 53.3032 76.5918 53.1509C76.4277 52.9946 76.3457 52.8091 76.3457 52.5942C76.3457 52.3755 76.4277 52.188 76.5918 52.0317C76.7559 51.8755 76.9551 51.7974 77.1895 51.7974C77.4277 51.7974 77.6289 51.8755 77.793 52.0317C77.9609 52.188 78.0449 52.3755 78.0449 52.5942C78.0449 52.8091 77.9609 52.9946 77.793 53.1509C77.6289 53.3032 77.4277 53.3794 77.1895 53.3794ZM79.3574 52.9399V51.6626C79.9043 52.0962 80.5215 52.313 81.209 52.313C81.7676 52.313 82.2129 52.186 82.5449 51.9321C82.8809 51.6782 83.0488 51.3345 83.0488 50.9009C83.0488 49.9478 82.3203 49.4712 80.8633 49.4712H80.2129V48.3813H80.834C82.127 48.3813 82.7734 47.9321 82.7734 47.0337C82.7734 46.2056 82.2695 45.7915 81.2617 45.7915C80.6992 45.7915 80.1699 45.9927 79.6738 46.395V45.188C80.2441 44.8677 80.918 44.7075 81.6953 44.7075C82.4414 44.7075 83.0391 44.895 83.4883 45.27C83.9375 45.645 84.1621 46.1255 84.1621 46.7114C84.1621 47.8169 83.5996 48.5278 82.4746 48.8442V48.8677C83.0801 48.9263 83.5586 49.1392 83.9102 49.5063C84.2617 49.8696 84.4375 50.3247 84.4375 50.8716C84.4375 51.6255 84.1543 52.2349 83.5879 52.6997C83.0215 53.1606 82.2754 53.3911 81.3496 53.3911C80.5176 53.3911 79.8535 53.2407 79.3574 52.9399ZM87.7422 49.0669C87.1484 49.0669 86.6758 48.8774 86.3242 48.4985C85.9727 48.1157 85.7969 47.606 85.7969 46.9692C85.7969 46.2739 85.9824 45.7271 86.3535 45.3286C86.7285 44.9263 87.2324 44.7251 87.8652 44.7251C88.4785 44.7251 88.9531 44.9106 89.2891 45.2817C89.6289 45.6528 89.7988 46.1743 89.7988 46.8462C89.7988 47.5181 89.6094 48.0571 89.2305 48.4634C88.8516 48.8657 88.3555 49.0669 87.7422 49.0669ZM87.8242 45.5454C87.5039 45.5454 87.25 45.6685 87.0625 45.9146C86.8789 46.1606 86.7871 46.4985 86.7871 46.9282C86.7871 47.3501 86.877 47.6782 87.0566 47.9126C87.2402 48.147 87.4902 48.2642 87.8066 48.2642C88.123 48.2642 88.3711 48.1431 88.5508 47.9009C88.7305 47.6548 88.8203 47.3149 88.8203 46.8813C88.8203 46.4595 88.7305 46.1313 88.5508 45.897C88.375 45.6626 88.1328 45.5454 87.8242 45.5454ZM93.4316 44.8481L88.041 53.3091H87.2031L92.5879 44.8481H93.4316ZM92.6758 53.3794C92.082 53.3794 91.6094 53.1899 91.2578 52.811C90.9062 52.4282 90.7305 51.9185 90.7305 51.2817C90.7305 50.5864 90.916 50.0396 91.2871 49.6411C91.6621 49.2388 92.166 49.0376 92.7988 49.0376C93.4121 49.0376 93.8867 49.2231 94.2227 49.5942C94.5625 49.9653 94.7324 50.4868 94.7324 51.1587C94.7324 51.8306 94.543 52.3696 94.1641 52.7759C93.7852 53.1782 93.2891 53.3794 92.6758 53.3794ZM92.7578 49.8579C92.4375 49.8579 92.1836 49.981 91.9961 50.2271C91.8125 50.4731 91.7207 50.811 91.7207 51.2407C91.7207 51.6626 91.8105 51.9907 91.9902 52.2251C92.1738 52.4595 92.4238 52.5767 92.7402 52.5767C93.0566 52.5767 93.3047 52.4556 93.4844 52.2134C93.6641 51.9673 93.7539 51.6274 93.7539 51.1938C93.7539 50.772 93.6641 50.4438 93.4844 50.2095C93.3086 49.9751 93.0664 49.8579 92.7578 49.8579Z"
fill="#323232"
/>
<path
d="M77.9785 137.41V146H76.6191V139.074C76.373 139.25 76.1074 139.4 75.8223 139.525C75.541 139.646 75.2188 139.754 74.8555 139.847V138.687C75.082 138.613 75.3008 138.535 75.5117 138.453C75.7227 138.371 75.9297 138.279 76.1328 138.177C76.3398 138.076 76.5469 137.963 76.7539 137.838C76.9648 137.713 77.1816 137.57 77.4043 137.41H77.9785ZM85.2266 138.277C84.875 138.922 84.543 139.56 84.2305 140.193C83.918 140.822 83.6348 141.455 83.3809 142.092C83.127 142.728 82.9062 143.371 82.7188 144.019C82.5312 144.664 82.3867 145.324 82.2852 146H80.8613C80.9551 145.398 81.0879 144.799 81.2598 144.201C81.4355 143.599 81.6406 143 81.875 142.402C82.1094 141.801 82.3711 141.197 82.6602 140.592C82.9531 139.986 83.2637 139.375 83.5918 138.758H79.6133V137.597H85.2266V138.277ZM87.084 146.129C86.8496 146.129 86.6504 146.052 86.4863 145.9C86.3223 145.744 86.2402 145.558 86.2402 145.344C86.2402 145.125 86.3223 144.937 86.4863 144.781C86.6504 144.625 86.8496 144.547 87.084 144.547C87.3223 144.547 87.5234 144.625 87.6875 144.781C87.8555 144.937 87.9395 145.125 87.9395 145.344C87.9395 145.558 87.8555 145.744 87.6875 145.9C87.5234 146.052 87.3223 146.129 87.084 146.129ZM94.3789 146H89.1055V145.349C89.1055 145.084 89.1426 144.836 89.2168 144.605C89.291 144.371 89.3906 144.152 89.5156 143.949C89.6406 143.742 89.7871 143.549 89.9551 143.369C90.123 143.185 90.3027 143.01 90.4941 142.842C90.6855 142.67 90.8809 142.506 91.0801 142.349C91.2793 142.189 91.4746 142.029 91.666 141.869C91.8457 141.717 92.0098 141.568 92.1582 141.424C92.3066 141.275 92.4336 141.123 92.5391 140.967C92.6445 140.81 92.7266 140.646 92.7852 140.474C92.8438 140.299 92.873 140.109 92.873 139.906C92.873 139.683 92.8379 139.49 92.7676 139.326C92.7012 139.158 92.6055 139.019 92.4805 138.91C92.3594 138.797 92.2148 138.713 92.0469 138.658C91.8789 138.599 91.6953 138.57 91.4961 138.57C91.1523 138.57 90.8027 138.65 90.4473 138.81C90.0918 138.97 89.75 139.211 89.4219 139.531V138.224C89.5938 138.095 89.7676 137.984 89.9434 137.89C90.1191 137.793 90.3008 137.713 90.4883 137.65C90.6758 137.584 90.873 137.535 91.0801 137.504C91.2871 137.472 91.5078 137.457 91.7422 137.457C92.1211 137.457 92.4648 137.508 92.7734 137.609C93.082 137.707 93.3457 137.853 93.5645 138.049C93.7832 138.24 93.9512 138.48 94.0684 138.769C94.1895 139.058 94.25 139.39 94.25 139.765C94.25 140.105 94.207 140.412 94.1211 140.685C94.0391 140.955 93.9199 141.207 93.7637 141.441C93.6113 141.676 93.4258 141.898 93.207 142.109C92.9883 142.32 92.7441 142.537 92.4746 142.76C92.248 142.943 92.0215 143.123 91.7949 143.299C91.5723 143.47 91.3711 143.64 91.1914 143.808C91.0117 143.972 90.8652 144.138 90.752 144.306C90.6426 144.47 90.5879 144.636 90.5879 144.804V144.834H94.3789V146ZM97.6367 141.816C97.043 141.816 96.5703 141.627 96.2188 141.248C95.8672 140.865 95.6914 140.355 95.6914 139.719C95.6914 139.023 95.877 138.476 96.248 138.078C96.623 137.676 97.127 137.474 97.7598 137.474C98.373 137.474 98.8477 137.66 99.1836 138.031C99.5234 138.402 99.6934 138.924 99.6934 139.595C99.6934 140.267 99.5039 140.806 99.125 141.213C98.7461 141.615 98.25 141.816 97.6367 141.816ZM97.7188 138.295C97.3984 138.295 97.1445 138.418 96.957 138.664C96.7734 138.91 96.6816 139.248 96.6816 139.677C96.6816 140.099 96.7715 140.427 96.9512 140.662C97.1348 140.896 97.3848 141.013 97.7012 141.013C98.0176 141.013 98.2656 140.892 98.4453 140.65C98.625 140.404 98.7148 140.064 98.7148 139.631C98.7148 139.209 98.625 138.881 98.4453 138.646C98.2695 138.412 98.0273 138.295 97.7188 138.295ZM103.326 137.597L97.9355 146.058H97.0977L102.482 137.597H103.326ZM102.57 146.129C101.977 146.129 101.504 145.939 101.152 145.56C100.801 145.177 100.625 144.668 100.625 144.031C100.625 143.336 100.811 142.789 101.182 142.39C101.557 141.988 102.061 141.787 102.693 141.787C103.307 141.787 103.781 141.972 104.117 142.344C104.457 142.715 104.627 143.236 104.627 143.908C104.627 144.58 104.438 145.119 104.059 145.525C103.68 145.927 103.184 146.129 102.57 146.129ZM102.652 142.607C102.332 142.607 102.078 142.73 101.891 142.976C101.707 143.222 101.615 143.56 101.615 143.99C101.615 144.412 101.705 144.74 101.885 144.974C102.068 145.209 102.318 145.326 102.635 145.326C102.951 145.326 103.199 145.205 103.379 144.963C103.559 144.717 103.648 144.377 103.648 143.943C103.648 143.521 103.559 143.193 103.379 142.959C103.203 142.724 102.961 142.607 102.652 142.607Z"
fill="#323232"
/>
<path
d="M132.723 100.5H127.449V99.8496C127.449 99.584 127.486 99.3359 127.561 99.1055C127.635 98.8711 127.734 98.6523 127.859 98.4492C127.984 98.2422 128.131 98.0488 128.299 97.8691C128.467 97.6855 128.646 97.5098 128.838 97.3418C129.029 97.1699 129.225 97.0059 129.424 96.8496C129.623 96.6895 129.818 96.5293 130.01 96.3691C130.189 96.2168 130.354 96.0684 130.502 95.9238C130.65 95.7754 130.777 95.623 130.883 95.4668C130.988 95.3105 131.07 95.1465 131.129 94.9746C131.187 94.7988 131.217 94.6094 131.217 94.4062C131.217 94.1836 131.182 93.9902 131.111 93.8262C131.045 93.6582 130.949 93.5195 130.824 93.4102C130.703 93.2969 130.559 93.2129 130.391 93.1582C130.223 93.0996 130.039 93.0703 129.84 93.0703C129.496 93.0703 129.146 93.1504 128.791 93.3105C128.436 93.4707 128.094 93.7109 127.766 94.0312V92.7246C127.937 92.5957 128.111 92.4844 128.287 92.3906C128.463 92.293 128.645 92.2129 128.832 92.1504C129.02 92.084 129.217 92.0352 129.424 92.0039C129.631 91.9727 129.852 91.957 130.086 91.957C130.465 91.957 130.809 92.0078 131.117 92.1094C131.426 92.207 131.689 92.3535 131.908 92.5488C132.127 92.7402 132.295 92.9805 132.412 93.2695C132.533 93.5586 132.594 93.8906 132.594 94.2656C132.594 94.6055 132.551 94.9121 132.465 95.1855C132.383 95.4551 132.264 95.707 132.107 95.9414C131.955 96.1758 131.77 96.3984 131.551 96.6094C131.332 96.8203 131.088 97.0371 130.818 97.2598C130.592 97.4434 130.365 97.623 130.139 97.7988C129.916 97.9707 129.715 98.1406 129.535 98.3086C129.355 98.4727 129.209 98.6387 129.096 98.8066C128.986 98.9707 128.932 99.1367 128.932 99.3047V99.334H132.723V100.5ZM139.783 97.7988C139.783 98.2207 139.713 98.6055 139.572 98.9531C139.436 99.3008 139.244 99.6016 138.998 99.8555C138.752 100.105 138.459 100.301 138.119 100.441C137.783 100.578 137.418 100.646 137.023 100.646C136.602 100.646 136.213 100.564 135.857 100.4C135.506 100.236 135.201 99.9922 134.943 99.668C134.689 99.3437 134.492 98.9414 134.352 98.4609C134.211 97.9766 134.141 97.416 134.141 96.7793C134.141 96.002 134.232 95.3125 134.416 94.7109C134.604 94.1094 134.859 93.6055 135.184 93.1992C135.508 92.793 135.889 92.4844 136.326 92.2734C136.764 92.0625 137.236 91.957 137.744 91.957C138.061 91.957 138.348 91.9785 138.605 92.0215C138.867 92.0645 139.076 92.123 139.232 92.1973V93.4219C139.033 93.3203 138.82 93.2344 138.594 93.1641C138.367 93.0937 138.107 93.0586 137.814 93.0586C137.486 93.0586 137.184 93.125 136.906 93.2578C136.629 93.3906 136.389 93.5859 136.186 93.8437C135.986 94.0977 135.828 94.4141 135.711 94.793C135.598 95.168 135.539 95.6016 135.535 96.0937H135.57C135.75 95.8164 135.992 95.5977 136.297 95.4375C136.605 95.2773 136.967 95.1973 137.381 95.1973C137.748 95.1973 138.078 95.2578 138.371 95.3789C138.668 95.4961 138.92 95.668 139.127 95.8945C139.338 96.1172 139.5 96.3906 139.613 96.7148C139.727 97.0352 139.783 97.3965 139.783 97.7988ZM138.412 97.9102C138.412 97.668 138.383 97.4473 138.324 97.248C138.27 97.0488 138.184 96.8789 138.066 96.7383C137.953 96.5937 137.809 96.4824 137.633 96.4043C137.461 96.3262 137.258 96.2871 137.023 96.2871C136.789 96.2871 136.582 96.3301 136.402 96.416C136.227 96.498 136.078 96.6074 135.957 96.7441C135.836 96.8809 135.744 97.0371 135.682 97.2129C135.623 97.3887 135.594 97.5684 135.594 97.752C135.594 97.9512 135.621 98.1562 135.676 98.3672C135.734 98.5742 135.822 98.7637 135.939 98.9355C136.057 99.1074 136.205 99.25 136.385 99.3633C136.568 99.4727 136.785 99.5273 137.035 99.5273C137.258 99.5273 137.455 99.4863 137.627 99.4043C137.799 99.3223 137.941 99.209 138.055 99.0645C138.172 98.9199 138.26 98.75 138.318 98.5547C138.381 98.3555 138.412 98.1406 138.412 97.9102ZM141.693 100.629C141.459 100.629 141.26 100.553 141.096 100.4C140.932 100.244 140.85 100.059 140.85 99.8437C140.85 99.625 140.932 99.4375 141.096 99.2812C141.26 99.125 141.459 99.0469 141.693 99.0469C141.932 99.0469 142.133 99.125 142.297 99.2812C142.465 99.4375 142.549 99.625 142.549 99.8437C142.549 100.059 142.465 100.244 142.297 100.4C142.133 100.553 141.932 100.629 141.693 100.629ZM146.744 91.9102V100.5H145.385V93.5742C145.139 93.75 144.873 93.9004 144.588 94.0254C144.307 94.1465 143.984 94.2539 143.621 94.3477V93.1875C143.848 93.1133 144.066 93.0352 144.277 92.9531C144.488 92.8711 144.695 92.7793 144.898 92.6777C145.105 92.5762 145.312 92.4629 145.52 92.3379C145.73 92.2129 145.947 92.0703 146.17 91.9102H146.744ZM150.406 96.3164C149.812 96.3164 149.34 96.127 148.988 95.748C148.637 95.3652 148.461 94.8555 148.461 94.2187C148.461 93.5234 148.646 92.9766 149.018 92.5781C149.393 92.1758 149.896 91.9746 150.529 91.9746C151.143 91.9746 151.617 92.1602 151.953 92.5312C152.293 92.9023 152.463 93.4238 152.463 94.0957C152.463 94.7676 152.273 95.3066 151.895 95.7129C151.516 96.1152 151.02 96.3164 150.406 96.3164ZM150.488 92.7949C150.168 92.7949 149.914 92.918 149.727 93.1641C149.543 93.4102 149.451 93.748 149.451 94.1777C149.451 94.5996 149.541 94.9277 149.721 95.1621C149.904 95.3965 150.154 95.5137 150.471 95.5137C150.787 95.5137 151.035 95.3926 151.215 95.1504C151.395 94.9043 151.484 94.5645 151.484 94.1309C151.484 93.709 151.395 93.3809 151.215 93.1465C151.039 92.9121 150.797 92.7949 150.488 92.7949ZM156.096 92.0977L150.705 100.559H149.867L155.252 92.0977H156.096ZM155.34 100.629C154.746 100.629 154.273 100.439 153.922 100.061C153.57 99.6777 153.395 99.168 153.395 98.5312C153.395 97.8359 153.58 97.2891 153.951 96.8906C154.326 96.4883 154.83 96.2871 155.463 96.2871C156.076 96.2871 156.551 96.4727 156.887 96.8437C157.227 97.2148 157.396 97.7363 157.396 98.4082C157.396 99.0801 157.207 99.6191 156.828 100.025C156.449 100.428 155.953 100.629 155.34 100.629ZM155.422 97.1074C155.102 97.1074 154.848 97.2305 154.66 97.4766C154.477 97.7227 154.385 98.0605 154.385 98.4902C154.385 98.9121 154.475 99.2402 154.654 99.4746C154.838 99.709 155.088 99.8262 155.404 99.8262C155.721 99.8262 155.969 99.7051 156.148 99.4629C156.328 99.2168 156.418 98.877 156.418 98.4434C156.418 98.0215 156.328 97.6934 156.148 97.459C155.973 97.2246 155.73 97.1074 155.422 97.1074Z"
fill="#323232"
/>
</svg>
								