<svg
width="16"
height="16"
viewBox="0 0 16 16"
fill="none"
xmlns="http://www.w3.org/2000/svg"
>
<path
d="M14.5269 -0.03125C14.5096 -0.03125 14.4923 -0.0305176 14.475 -0.0290527C14.3728 -0.0206299 12.0882 0.189087 11.2296 1.85511L8.12928 1.54004C7.37794 1.46375 6.64161 1.72632 6.10926 2.25953L0.760241 7.59084C-0.212052 8.56484 -0.211686 10.1491 0.760974 11.1226L4.86365 15.2287C5.35645 15.7218 6.00293 15.9688 6.64722 15.9688C7.2826 15.9687 7.91591 15.7285 8.39747 15.2475C8.64149 15.0036 8.64174 14.6081 8.39784 14.364C8.15407 14.1199 7.75843 14.1198 7.51441 14.3636C7.03187 14.8457 6.23914 14.8376 5.74756 14.3455L1.64477 10.2394C1.15844 9.75271 1.15831 8.96059 1.6433 8.47475L6.99244 3.14332C7.25916 2.87623 7.62745 2.74488 8.00294 2.78296L12.7564 3.26612L12.8183 3.87354C11.9524 4.1963 11.1284 4.24781 11.1096 4.24891C10.7655 4.26746 10.5014 4.56129 10.5194 4.90553C10.537 5.2389 10.8128 5.49745 11.1427 5.49745C11.1538 5.49745 11.1649 5.4972 11.176 5.49659C11.2161 5.49452 12.0155 5.44874 12.9483 5.15028L13.239 8.00588C13.2773 8.38063 13.1466 8.74831 12.8805 9.01503L9.8329 12.018C9.58718 12.26 9.58425 12.6557 9.82631 12.9014C10.0685 13.1471 10.464 13.1501 10.7097 12.9079L13.7592 9.90322C13.7602 9.90224 13.7611 9.90127 13.7622 9.90017C14.2962 9.36672 14.5586 8.63014 14.4821 7.87929L14.1504 4.62342C14.5706 4.37745 14.9248 4.08766 15.208 3.75733C15.7488 3.12611 16.0229 2.36292 16.0223 1.48914V1.46424C16.0223 0.63965 15.3515 -0.03125 14.5269 -0.03125V-0.03125ZM14.7729 1.48951C14.7734 2.18775 14.5205 2.75428 14.0056 3.20228L13.9477 2.63282C13.9176 2.3379 13.6844 2.10462 13.3893 2.07459L12.6647 2.00098C13.3041 1.39063 14.3606 1.24134 14.5494 1.21912C14.6745 1.23059 14.7729 1.33618 14.7729 1.46424V1.48951ZM9.70998 9.12136C9.46608 9.36538 9.07057 9.36538 8.82655 9.12136C8.58253 8.87734 8.58253 8.48183 8.82655 8.23793C8.8932 8.17128 8.90529 8.09401 8.9037 8.04091C8.90126 7.95558 8.86403 7.8727 8.79897 7.80775L8.41627 7.42494C8.31703 7.3257 8.18934 7.27028 8.05678 7.26881C7.96376 7.26796 7.83107 7.29201 7.71034 7.41286L7.61171 7.51149C7.40809 7.71498 7.40064 8.05129 7.59523 8.24599L8.00001 8.65065C8.33168 8.98232 8.51686 9.41994 8.52174 9.88308C8.5265 10.3527 8.34547 10.7952 8.01161 11.1289L7.96559 11.1749C7.62794 11.5127 7.193 11.6811 6.75526 11.6811C6.38343 11.6812 6.00977 11.5592 5.69153 11.3169L5.42993 11.5694C5.30872 11.6863 5.15235 11.7444 4.99622 11.7444C4.83264 11.7444 4.66919 11.6806 4.54663 11.5535C4.30701 11.3052 4.31421 10.9097 4.5625 10.6702L4.79663 10.4442C4.5332 10.1588 4.3844 9.79555 4.37622 9.41384C4.36743 8.99782 4.526 8.60512 4.82288 8.30824C5.0669 8.06435 5.46241 8.06435 5.70643 8.30824C5.95032 8.55226 5.95032 8.94777 5.70643 9.19179C5.65101 9.24709 5.62378 9.31289 5.62537 9.38723C5.62708 9.46706 5.66272 9.5458 5.72596 9.60891L6.38392 10.2669C6.58997 10.4729 6.89015 10.4834 7.08216 10.2915L7.12818 10.2454C7.22254 10.1511 7.27369 10.0271 7.27235 9.89602C7.27088 9.76174 7.21559 9.6332 7.11659 9.5342L6.71168 9.12941C6.02662 8.44423 6.03406 7.32216 6.72816 6.62794L6.82691 6.52931C7.15614 6.20009 7.59022 6.01942 8.05104 6.01942H8.07032C8.38893 6.02296 8.69569 6.11256 8.96437 6.27699L9.23268 5.99989C9.4728 5.75197 9.86818 5.74562 10.1161 5.98561C10.3639 6.2256 10.3703 6.62111 10.1303 6.86903L9.86538 7.14259C10.043 7.39589 10.1435 7.69362 10.1526 8.00429C10.1649 8.4269 10.0078 8.82363 9.70998 9.12136Z"
fill="#1E89C6"
/>
</svg>
												