<svg width="27" height="24" viewBox="0 0 27 24" fill="none" xmlns="http://www.w3.org/2000/svg">
<path d="M26.5045 16.7061L19.6294 23.7855C19.5943 23.8212 19.4801 23.8927 19.287 24C19.1113 23.8927 19.006 23.8212 18.9709 23.7855L18.5494 23.4101L24.4499 17.3497C25.0118 16.7598 25.2928 16.1788 25.2928 15.6067C25.2928 15.0704 25.2401 14.6101 25.1348 14.2257C25.0294 13.8413 24.9284 13.5821 24.8318 13.448C24.7352 13.314 24.6079 13.1665 24.4499 13.0056L12.6489 0.858101C12.4733 0.67933 12.2099 0.49162 11.8587 0.294972C11.5074 0.098324 11.2528 0 11.0948 0H12.7279C13.2196 0.0178771 13.6148 0.178771 13.9133 0.482682L26.5045 13.4346C26.8206 13.7743 26.9787 14.324 26.9787 15.0838C26.9787 15.8436 26.8206 16.3844 26.5045 16.7061ZM22.764 16.4648L16.0206 23.4101C15.687 23.7497 15.2611 23.9196 14.7431 23.9196C14.225 23.9196 13.8079 23.7497 13.4918 23.4101L0.479151 9.97542C0.0401268 9.51061 -0.0915805 8.95642 0.0840293 8.31285C0.0313463 8.13408 0.00500488 7.96425 0.00500488 7.80335V1.74302C0.00500488 1.26034 0.171834 0.849162 0.505493 0.509497C0.839151 0.169832 1.23427 0 1.69086 0H7.59134C7.74939 0 7.90744 0.0268156 8.06549 0.0804469C8.71525 -0.098324 9.25964 0.0357542 9.69866 0.482682L22.764 13.8637C23.0801 14.2034 23.2382 14.6413 23.2382 15.1777C23.2382 15.714 23.0801 16.143 22.764 16.4648ZM5.90549 3.45922C5.20305 3.45922 4.60598 3.71397 4.11427 4.22346C3.62257 4.73296 3.37671 5.34972 3.37671 6.07374C3.37671 6.79777 3.62257 7.41006 4.11427 7.91061C4.60598 8.41117 5.20305 8.66145 5.90549 8.66145C6.60793 8.66145 7.205 8.41117 7.69671 7.91061C8.18842 7.41006 8.43427 6.79777 8.43427 6.07374C8.43427 5.34972 8.18842 4.73296 7.69671 4.22346C7.205 3.71397 6.60793 3.45922 5.90549 3.45922Z" fill="#646464"/>
</svg>
