<svg
width="320"
height="193"
viewBox="0 0 347 193"
fill="none"
xmlns="http://www.w3.org/2000/svg"
>
<path
d="M12.9766 164.764C12.9766 165.467 12.9121 166.09 12.7832 166.633C12.6582 167.176 12.4746 167.635 12.2324 168.01C11.9941 168.381 11.6992 168.664 11.3477 168.859C11 169.051 10.6035 169.146 10.1582 169.146C9.73633 169.146 9.35938 169.055 9.02734 168.871C8.69922 168.684 8.42188 168.412 8.19531 168.057C7.96875 167.701 7.79688 167.266 7.67969 166.75C7.5625 166.23 7.50391 165.637 7.50391 164.969C7.50391 164.234 7.56445 163.586 7.68555 163.023C7.81055 162.461 7.99219 161.99 8.23047 161.611C8.46875 161.229 8.76367 160.941 9.11523 160.75C9.4707 160.555 9.87695 160.457 10.334 160.457C12.0957 160.457 12.9766 161.893 12.9766 164.764ZM11.9922 164.857C11.9922 162.467 11.4238 161.271 10.2871 161.271C9.08789 161.271 8.48828 162.488 8.48828 164.922C8.48828 167.191 9.07617 168.326 10.252 168.326C11.4121 168.326 11.9922 167.17 11.9922 164.857Z"
fill="#323232"
/>
<path
d="M4.24219 143H3.28125V135.74C3.20703 135.814 3.09766 135.9 2.95312 135.998C2.8125 136.092 2.65234 136.186 2.47266 136.279C2.29688 136.373 2.10938 136.461 1.91016 136.543C1.71484 136.625 1.52344 136.689 1.33594 136.736V135.764C1.54688 135.705 1.76953 135.627 2.00391 135.529C2.24219 135.428 2.47461 135.316 2.70117 135.195C2.93164 135.07 3.14844 134.941 3.35156 134.809C3.55469 134.672 3.73047 134.539 3.87891 134.41H4.24219V143ZM12.4453 138.764C12.4453 139.467 12.3809 140.09 12.252 140.633C12.127 141.176 11.9434 141.635 11.7012 142.01C11.4629 142.381 11.168 142.664 10.8164 142.859C10.4688 143.051 10.0723 143.146 9.62695 143.146C9.20508 143.146 8.82812 143.055 8.49609 142.871C8.16797 142.684 7.89062 142.412 7.66406 142.057C7.4375 141.701 7.26562 141.266 7.14844 140.75C7.03125 140.23 6.97266 139.637 6.97266 138.969C6.97266 138.234 7.0332 137.586 7.1543 137.023C7.2793 136.461 7.46094 135.99 7.69922 135.611C7.9375 135.229 8.23242 134.941 8.58398 134.75C8.93945 134.555 9.3457 134.457 9.80273 134.457C11.5645 134.457 12.4453 135.893 12.4453 138.764ZM11.4609 138.857C11.4609 136.467 10.8926 135.271 9.75586 135.271C8.55664 135.271 7.95703 136.488 7.95703 138.922C7.95703 141.191 8.54492 142.326 9.7207 142.326C10.8809 142.326 11.4609 141.17 11.4609 138.857Z"
fill="#323232"
/>
<path
d="M4.52344 110.801C4.52344 110.543 4.48242 110.318 4.40039 110.127C4.32227 109.936 4.21289 109.777 4.07227 109.652C3.93555 109.523 3.77344 109.428 3.58594 109.365C3.39844 109.303 3.19531 109.271 2.97656 109.271C2.78906 109.271 2.60547 109.297 2.42578 109.348C2.24609 109.398 2.07031 109.469 1.89844 109.559C1.73047 109.648 1.56641 109.756 1.40625 109.881C1.25 110.006 1.10352 110.145 0.966797 110.297V109.266C1.23633 109.004 1.53711 108.805 1.86914 108.668C2.20508 108.527 2.61328 108.457 3.09375 108.457C3.4375 108.457 3.75586 108.508 4.04883 108.609C4.3418 108.707 4.5957 108.852 4.81055 109.043C5.02539 109.234 5.19336 109.471 5.31445 109.752C5.43945 110.033 5.50195 110.355 5.50195 110.719C5.50195 111.051 5.46289 111.352 5.38477 111.621C5.31055 111.891 5.19531 112.145 5.03906 112.383C4.88672 112.621 4.69336 112.85 4.45898 113.068C4.22461 113.287 3.94922 113.51 3.63281 113.736C3.23828 114.018 2.91211 114.258 2.6543 114.457C2.40039 114.656 2.19727 114.844 2.04492 115.02C1.89648 115.191 1.79102 115.365 1.72852 115.541C1.66992 115.713 1.64062 115.912 1.64062 116.139H5.82422V117H0.638672V116.584C0.638672 116.225 0.677734 115.908 0.755859 115.635C0.833984 115.361 0.962891 115.102 1.14258 114.855C1.32227 114.609 1.55664 114.363 1.8457 114.117C2.13867 113.871 2.49609 113.594 2.91797 113.285C3.22266 113.066 3.47656 112.857 3.67969 112.658C3.88672 112.459 4.05273 112.26 4.17773 112.061C4.30273 111.861 4.39062 111.66 4.44141 111.457C4.49609 111.25 4.52344 111.031 4.52344 110.801ZM12.4453 112.764C12.4453 113.467 12.3809 114.09 12.252 114.633C12.127 115.176 11.9434 115.635 11.7012 116.01C11.4629 116.381 11.168 116.664 10.8164 116.859C10.4688 117.051 10.0723 117.146 9.62695 117.146C9.20508 117.146 8.82812 117.055 8.49609 116.871C8.16797 116.684 7.89062 116.412 7.66406 116.057C7.4375 115.701 7.26562 115.266 7.14844 114.75C7.03125 114.23 6.97266 113.637 6.97266 112.969C6.97266 112.234 7.0332 111.586 7.1543 111.023C7.2793 110.461 7.46094 109.99 7.69922 109.611C7.9375 109.229 8.23242 108.941 8.58398 108.75C8.93945 108.555 9.3457 108.457 9.80273 108.457C11.5645 108.457 12.4453 109.893 12.4453 112.764ZM11.4609 112.857C11.4609 110.467 10.8926 109.271 9.75586 109.271C8.55664 109.271 7.95703 110.488 7.95703 112.922C7.95703 115.191 8.54492 116.326 9.7207 116.326C10.8809 116.326 11.4609 115.17 11.4609 112.857Z"
fill="#323232"
/>
<path
d="M5.58398 88.6211C5.58398 89 5.51172 89.3457 5.36719 89.6582C5.22656 89.9668 5.02539 90.2324 4.76367 90.4551C4.50586 90.6738 4.19531 90.8438 3.83203 90.9648C3.46875 91.0859 3.06836 91.1465 2.63086 91.1465C1.83008 91.1465 1.19336 90.9941 0.720703 90.6895V89.6582C1.28711 90.1035 1.93555 90.3262 2.66602 90.3262C2.95898 90.3262 3.22266 90.2891 3.45703 90.2148C3.69531 90.1406 3.89844 90.0332 4.06641 89.8926C4.23828 89.752 4.36914 89.582 4.45898 89.3828C4.55273 89.1836 4.59961 88.959 4.59961 88.709C4.59961 87.6113 3.81836 87.0625 2.25586 87.0625H1.55859V86.248H2.2207C3.60352 86.248 4.29492 85.7324 4.29492 84.7012C4.29492 83.748 3.76758 83.2715 2.71289 83.2715C2.11914 83.2715 1.5625 83.4707 1.04297 83.8691V82.9375C1.57812 82.6172 2.21484 82.457 2.95312 82.457C3.30469 82.457 3.62305 82.5059 3.9082 82.6035C4.19336 82.7012 4.4375 82.8379 4.64062 83.0137C4.84375 83.1895 5 83.4004 5.10938 83.6465C5.22266 83.8926 5.2793 84.1641 5.2793 84.4609C5.2793 85.5664 4.7207 86.2773 3.60352 86.5938V86.6172C3.88867 86.6484 4.15234 86.7188 4.39453 86.8281C4.63672 86.9336 4.8457 87.0723 5.02148 87.2441C5.19727 87.416 5.33398 87.6191 5.43164 87.8535C5.5332 88.084 5.58398 88.3398 5.58398 88.6211ZM12.4453 86.7637C12.4453 87.4668 12.3809 88.0898 12.252 88.6328C12.127 89.1758 11.9434 89.6348 11.7012 90.0098C11.4629 90.3809 11.168 90.6641 10.8164 90.8594C10.4688 91.0508 10.0723 91.1465 9.62695 91.1465C9.20508 91.1465 8.82812 91.0547 8.49609 90.8711C8.16797 90.6836 7.89062 90.4121 7.66406 90.0566C7.4375 89.7012 7.26562 89.2656 7.14844 88.75C7.03125 88.2305 6.97266 87.6367 6.97266 86.9688C6.97266 86.2344 7.0332 85.5859 7.1543 85.0234C7.2793 84.4609 7.46094 83.9902 7.69922 83.6113C7.9375 83.2285 8.23242 82.9414 8.58398 82.75C8.93945 82.5547 9.3457 82.457 9.80273 82.457C11.5645 82.457 12.4453 83.8926 12.4453 86.7637ZM11.4609 86.8574C11.4609 84.4668 10.8926 83.2715 9.75586 83.2715C8.55664 83.2715 7.95703 84.4883 7.95703 86.9219C7.95703 89.1914 8.54492 90.3262 9.7207 90.3262C10.8809 90.3262 11.4609 89.1699 11.4609 86.8574Z"
fill="#323232"
/>
<path
d="M4.98047 56.5977V62.1465H6.05859V63.0254H4.98047V65H4.03125V63.0254H0.0820312V62.1934C0.449219 61.7793 0.820312 61.3379 1.19531 60.8691C1.57031 60.3965 1.92773 59.918 2.26758 59.4336C2.61133 58.9492 2.92773 58.4668 3.2168 57.9863C3.50977 57.502 3.75586 57.0391 3.95508 56.5977H4.98047ZM1.16602 62.1465H4.03125V58.0332C3.73828 58.5449 3.46094 59.002 3.19922 59.4043C2.9375 59.8066 2.6875 60.1719 2.44922 60.5C2.21484 60.8281 1.99023 61.125 1.77539 61.3906C1.56055 61.6562 1.35742 61.9082 1.16602 62.1465ZM12.4453 60.7637C12.4453 61.4668 12.3809 62.0898 12.252 62.6328C12.127 63.1758 11.9434 63.6348 11.7012 64.0098C11.4629 64.3809 11.168 64.6641 10.8164 64.8594C10.4688 65.0508 10.0723 65.1465 9.62695 65.1465C9.20508 65.1465 8.82812 65.0547 8.49609 64.8711C8.16797 64.6836 7.89062 64.4121 7.66406 64.0566C7.4375 63.7012 7.26562 63.2656 7.14844 62.75C7.03125 62.2305 6.97266 61.6367 6.97266 60.9688C6.97266 60.2344 7.0332 59.5859 7.1543 59.0234C7.2793 58.4609 7.46094 57.9902 7.69922 57.6113C7.9375 57.2285 8.23242 56.9414 8.58398 56.75C8.93945 56.5547 9.3457 56.457 9.80273 56.457C11.5645 56.457 12.4453 57.8926 12.4453 60.7637ZM11.4609 60.8574C11.4609 58.4668 10.8926 57.2715 9.75586 57.2715C8.55664 57.2715 7.95703 58.4883 7.95703 60.9219C7.95703 63.1914 8.54492 64.3262 9.7207 64.3262C10.8809 64.3262 11.4609 63.1699 11.4609 60.8574Z"
fill="#323232"
/>
<path
d="M5.67773 36.4336C5.67773 36.8438 5.60742 37.2148 5.4668 37.5469C5.32617 37.8789 5.125 38.1641 4.86328 38.4023C4.60547 38.6406 4.29297 38.8242 3.92578 38.9531C3.55859 39.082 3.15039 39.1465 2.70117 39.1465C1.91992 39.1465 1.33984 39.0293 0.960938 38.7949V37.7754C1.53125 38.1426 2.11523 38.3262 2.71289 38.3262C3.01758 38.3262 3.29102 38.2812 3.5332 38.1914C3.7793 38.1016 3.98828 37.9766 4.16016 37.8164C4.33203 37.6562 4.46289 37.4629 4.55273 37.2363C4.64648 37.0098 4.69336 36.7617 4.69336 36.4922C4.69336 35.9453 4.50977 35.5176 4.14258 35.209C3.77539 34.8965 3.24219 34.7402 2.54297 34.7402C2.42969 34.7402 2.31055 34.7422 2.18555 34.7461C2.06055 34.75 1.93555 34.7559 1.81055 34.7637C1.68555 34.7676 1.5625 34.7734 1.44141 34.7812C1.32422 34.7891 1.2168 34.7988 1.11914 34.8105L1.40625 30.5977H5.29102V31.4648H2.23828L2.06836 33.9316C2.19336 33.9238 2.32617 33.918 2.4668 33.9141C2.60742 33.9062 2.73242 33.9023 2.8418 33.9023C3.28711 33.9023 3.68555 33.9609 4.03711 34.0781C4.38867 34.1953 4.68555 34.3633 4.92773 34.582C5.17383 34.7969 5.35938 35.0625 5.48438 35.3789C5.61328 35.6914 5.67773 36.043 5.67773 36.4336ZM12.4453 34.7637C12.4453 35.4668 12.3809 36.0898 12.252 36.6328C12.127 37.1758 11.9434 37.6348 11.7012 38.0098C11.4629 38.3809 11.168 38.6641 10.8164 38.8594C10.4688 39.0508 10.0723 39.1465 9.62695 39.1465C9.20508 39.1465 8.82812 39.0547 8.49609 38.8711C8.16797 38.6836 7.89062 38.4121 7.66406 38.0566C7.4375 37.7012 7.26562 37.2656 7.14844 36.75C7.03125 36.2305 6.97266 35.6367 6.97266 34.9688C6.97266 34.2344 7.0332 33.5859 7.1543 33.0234C7.2793 32.4609 7.46094 31.9902 7.69922 31.6113C7.9375 31.2285 8.23242 30.9414 8.58398 30.75C8.93945 30.5547 9.3457 30.457 9.80273 30.457C11.5645 30.457 12.4453 31.8926 12.4453 34.7637ZM11.4609 34.8574C11.4609 32.4668 10.8926 31.2715 9.75586 31.2715C8.55664 31.2715 7.95703 32.4883 7.95703 34.9219C7.95703 37.1914 8.54492 38.3262 9.7207 38.3262C10.8809 38.3262 11.4609 37.1699 11.4609 34.8574Z"
fill="#323232"
/>
<path
d="M5.98828 10.334C5.98828 10.7441 5.92188 11.1211 5.78906 11.4648C5.65625 11.8086 5.47266 12.1055 5.23828 12.3555C5.00391 12.6055 4.72461 12.8008 4.40039 12.9414C4.07617 13.0781 3.72461 13.1465 3.3457 13.1465C2.92383 13.1465 2.54492 13.0586 2.20898 12.8828C1.87695 12.707 1.59375 12.4551 1.35938 12.127C1.12891 11.7949 0.953125 11.3906 0.832031 10.9141C0.710938 10.4375 0.650391 9.90039 0.650391 9.30273C0.650391 8.57227 0.730469 7.91016 0.890625 7.31641C1.05469 6.71875 1.28516 6.20898 1.58203 5.78711C1.88281 5.36133 2.24414 5.0332 2.66602 4.80273C3.08789 4.57227 3.55859 4.45703 4.07812 4.45703C4.65625 4.45703 5.12109 4.53711 5.47266 4.69727V5.60547C5.03906 5.38281 4.58203 5.27148 4.10156 5.27148C3.72656 5.27148 3.38867 5.35547 3.08789 5.52344C2.78711 5.69141 2.5293 5.92969 2.31445 6.23828C2.09961 6.54297 1.93359 6.91211 1.81641 7.3457C1.70312 7.7793 1.64648 8.26172 1.64648 8.79297H1.66992C2.05664 8.09375 2.69531 7.74414 3.58594 7.74414C3.95312 7.74414 4.2832 7.80664 4.57617 7.93164C4.87305 8.05664 5.125 8.23438 5.33203 8.46484C5.54297 8.69141 5.70508 8.96289 5.81836 9.2793C5.93164 9.5957 5.98828 9.94727 5.98828 10.334ZM5.00391 10.457C5.00391 10.1641 4.9668 9.90039 4.89258 9.66602C4.81836 9.43164 4.71094 9.23242 4.57031 9.06836C4.43359 8.9043 4.26367 8.7793 4.06055 8.69336C3.85742 8.60352 3.62695 8.55859 3.36914 8.55859C3.13086 8.55859 2.91016 8.60352 2.70703 8.69336C2.50391 8.7832 2.32812 8.90625 2.17969 9.0625C2.03125 9.21484 1.91406 9.39453 1.82812 9.60156C1.74609 9.80469 1.70508 10.0215 1.70508 10.252C1.70508 10.541 1.74609 10.8125 1.82812 11.0664C1.91016 11.3164 2.02539 11.5352 2.17383 11.7227C2.32227 11.9102 2.49805 12.0586 2.70117 12.168C2.9082 12.2734 3.13672 12.3262 3.38672 12.3262C3.62891 12.3262 3.84961 12.2812 4.04883 12.1914C4.24805 12.0977 4.41797 11.9688 4.55859 11.8047C4.69922 11.6406 4.80859 11.4453 4.88672 11.2188C4.96484 10.9883 5.00391 10.7344 5.00391 10.457ZM12.4453 8.76367C12.4453 9.4668 12.3809 10.0898 12.252 10.6328C12.127 11.1758 11.9434 11.6348 11.7012 12.0098C11.4629 12.3809 11.168 12.6641 10.8164 12.8594C10.4688 13.0508 10.0723 13.1465 9.62695 13.1465C9.20508 13.1465 8.82812 13.0547 8.49609 12.8711C8.16797 12.6836 7.89062 12.4121 7.66406 12.0566C7.4375 11.7012 7.26562 11.2656 7.14844 10.75C7.03125 10.2305 6.97266 9.63672 6.97266 8.96875C6.97266 8.23438 7.0332 7.58594 7.1543 7.02344C7.2793 6.46094 7.46094 5.99023 7.69922 5.61133C7.9375 5.22852 8.23242 4.94141 8.58398 4.75C8.93945 4.55469 9.3457 4.45703 9.80273 4.45703C11.5645 4.45703 12.4453 5.89258 12.4453 8.76367ZM11.4609 8.85742C11.4609 6.4668 10.8926 5.27148 9.75586 5.27148C8.55664 5.27148 7.95703 6.48828 7.95703 8.92188C7.95703 11.1914 8.54492 12.3262 9.7207 12.3262C10.8809 12.3262 11.4609 11.1699 11.4609 8.85742Z"
fill="#323232"
/>
<path
d="M29.252 186.988C29.252 187.984 29.041 188.76 28.6191 189.314C28.1973 189.865 27.6328 190.141 26.9258 190.141C26.5977 190.141 26.3281 190.094 26.1172 190V189.027C26.3281 189.18 26.6016 189.256 26.9375 189.256C27.8242 189.256 28.2676 188.504 28.2676 187V181.598H29.252V186.988ZM35.5566 190H34.5957V189.062H34.5723C34.1543 189.781 33.5391 190.141 32.7266 190.141C32.1289 190.141 31.6602 189.982 31.3203 189.666C30.9844 189.35 30.8164 188.93 30.8164 188.406C30.8164 187.285 31.4766 186.633 32.7969 186.449L34.5957 186.197C34.5957 185.178 34.1836 184.668 33.3594 184.668C32.6367 184.668 31.9844 184.914 31.4023 185.406V184.422C31.9922 184.047 32.6719 183.859 33.4414 183.859C34.8516 183.859 35.5566 184.605 35.5566 186.098V190ZM34.5957 186.965L33.1484 187.164C32.7031 187.227 32.3672 187.338 32.1406 187.498C31.9141 187.654 31.8008 187.934 31.8008 188.336C31.8008 188.629 31.9043 188.869 32.1113 189.057C32.3223 189.24 32.6016 189.332 32.9492 189.332C33.4258 189.332 33.8184 189.166 34.127 188.834C34.4395 188.498 34.5957 188.074 34.5957 187.562V186.965ZM42.3477 190H41.3867V186.578C41.3867 185.305 40.9219 184.668 39.9922 184.668C39.5117 184.668 39.1133 184.85 38.7969 185.213C38.4844 185.572 38.3281 186.027 38.3281 186.578V190H37.3672V184H38.3281V184.996H38.3516C38.8047 184.238 39.4609 183.859 40.3203 183.859C40.9766 183.859 41.4785 184.072 41.8262 184.498C42.1738 184.92 42.3477 185.531 42.3477 186.332V190Z"
fill="#323232"
/>
<path
d="M78.3672 182.488H75.0859V185.395H78.1211V186.279H75.0859V190H74.1016V181.598H78.3672V182.488ZM84.6543 187.24H80.418C80.4336 187.908 80.6133 188.424 80.957 188.787C81.3008 189.15 81.7734 189.332 82.375 189.332C83.0508 189.332 83.6719 189.109 84.2383 188.664V189.566C83.7109 189.949 83.0137 190.141 82.1465 190.141C81.2988 190.141 80.6328 189.869 80.1484 189.326C79.6641 188.779 79.4219 188.012 79.4219 187.023C79.4219 186.09 79.6855 185.33 80.2129 184.744C80.7441 184.154 81.4023 183.859 82.1875 183.859C82.9727 183.859 83.5801 184.113 84.0098 184.621C84.4395 185.129 84.6543 185.834 84.6543 186.736V187.24ZM83.6699 186.426C83.666 185.871 83.5312 185.439 83.2656 185.131C83.0039 184.822 82.6387 184.668 82.1699 184.668C81.7168 184.668 81.332 184.83 81.0156 185.154C80.6992 185.479 80.5039 185.902 80.4297 186.426H83.6699ZM87.0977 189.133H87.0742V190H86.1133V181.117H87.0742V185.055H87.0977C87.5703 184.258 88.2617 183.859 89.1719 183.859C89.9414 183.859 90.543 184.129 90.9766 184.668C91.4141 185.203 91.6328 185.922 91.6328 186.824C91.6328 187.828 91.3887 188.633 90.9004 189.238C90.4121 189.84 89.7441 190.141 88.8965 190.141C88.1035 190.141 87.5039 189.805 87.0977 189.133ZM87.0742 186.713V187.551C87.0742 188.047 87.2344 188.469 87.5547 188.816C87.8789 189.16 88.2891 189.332 88.7852 189.332C89.3672 189.332 89.8223 189.109 90.1504 188.664C90.4824 188.219 90.6484 187.6 90.6484 186.807C90.6484 186.139 90.4941 185.615 90.1855 185.236C89.877 184.857 89.459 184.668 88.9316 184.668C88.373 184.668 87.9238 184.863 87.584 185.254C87.2441 185.641 87.0742 186.127 87.0742 186.713Z"
fill="#323232"
/>
<path
d="M131.668 190H130.689V184.363C130.689 183.918 130.717 183.373 130.771 182.729H130.748C130.654 183.107 130.57 183.379 130.496 183.543L127.625 190H127.145L124.279 183.59C124.197 183.402 124.113 183.115 124.027 182.729H124.004C124.035 183.064 124.051 183.613 124.051 184.375V190H123.102V181.598H124.402L126.98 187.457C127.18 187.906 127.309 188.242 127.367 188.465H127.402C127.57 188.004 127.705 187.66 127.807 187.434L130.438 181.598H131.668V190ZM138.049 190H137.088V189.062H137.064C136.646 189.781 136.031 190.141 135.219 190.141C134.621 190.141 134.152 189.982 133.812 189.666C133.477 189.35 133.309 188.93 133.309 188.406C133.309 187.285 133.969 186.633 135.289 186.449L137.088 186.197C137.088 185.178 136.676 184.668 135.852 184.668C135.129 184.668 134.477 184.914 133.895 185.406V184.422C134.484 184.047 135.164 183.859 135.934 183.859C137.344 183.859 138.049 184.605 138.049 186.098V190ZM137.088 186.965L135.641 187.164C135.195 187.227 134.859 187.338 134.633 187.498C134.406 187.654 134.293 187.934 134.293 188.336C134.293 188.629 134.396 188.869 134.604 189.057C134.814 189.24 135.094 189.332 135.441 189.332C135.918 189.332 136.311 189.166 136.619 188.834C136.932 188.498 137.088 188.074 137.088 187.562V186.965ZM142.988 184.973C142.82 184.844 142.578 184.779 142.262 184.779C141.852 184.779 141.508 184.973 141.23 185.359C140.957 185.746 140.82 186.273 140.82 186.941V190H139.859V184H140.82V185.236H140.844C140.98 184.814 141.189 184.486 141.471 184.252C141.752 184.014 142.066 183.895 142.414 183.895C142.664 183.895 142.855 183.922 142.988 183.977V184.973Z"
fill="#323232"
/>
<path
d="M180.605 190H179.516L178.625 187.645H175.062L174.225 190H173.129L176.352 181.598H177.371L180.605 190ZM178.303 186.76L176.984 183.18C176.941 183.062 176.898 182.875 176.855 182.617H176.832C176.793 182.855 176.748 183.043 176.697 183.18L175.391 186.76H178.303ZM182.703 189.133H182.68V192.76H181.719V184H182.68V185.055H182.703C183.176 184.258 183.867 183.859 184.777 183.859C185.551 183.859 186.154 184.129 186.588 184.668C187.021 185.203 187.238 185.922 187.238 186.824C187.238 187.828 186.994 188.633 186.506 189.238C186.018 189.84 185.35 190.141 184.502 190.141C183.725 190.141 183.125 189.805 182.703 189.133ZM182.68 186.713V187.551C182.68 188.047 182.84 188.469 183.16 188.816C183.484 189.16 183.895 189.332 184.391 189.332C184.973 189.332 185.428 189.109 185.756 188.664C186.088 188.219 186.254 187.6 186.254 186.807C186.254 186.139 186.1 185.615 185.791 185.236C185.482 184.857 185.064 184.668 184.537 184.668C183.979 184.668 183.529 184.863 183.189 185.254C182.85 185.641 182.68 186.127 182.68 186.713ZM191.902 184.973C191.734 184.844 191.492 184.779 191.176 184.779C190.766 184.779 190.422 184.973 190.145 185.359C189.871 185.746 189.734 186.273 189.734 186.941V190H188.773V184H189.734V185.236H189.758C189.895 184.814 190.104 184.486 190.385 184.252C190.666 184.014 190.98 183.895 191.328 183.895C191.578 183.895 191.77 183.922 191.902 183.977V184.973Z"
fill="#323232"
/>
<path
d="M230.668 190H229.689V184.363C229.689 183.918 229.717 183.373 229.771 182.729H229.748C229.654 183.107 229.57 183.379 229.496 183.543L226.625 190H226.145L223.279 183.59C223.197 183.402 223.113 183.115 223.027 182.729H223.004C223.035 183.064 223.051 183.613 223.051 184.375V190H222.102V181.598H223.402L225.98 187.457C226.18 187.906 226.309 188.242 226.367 188.465H226.402C226.57 188.004 226.705 187.66 226.807 187.434L229.438 181.598H230.668V190ZM237.049 190H236.088V189.062H236.064C235.646 189.781 235.031 190.141 234.219 190.141C233.621 190.141 233.152 189.982 232.812 189.666C232.477 189.35 232.309 188.93 232.309 188.406C232.309 187.285 232.969 186.633 234.289 186.449L236.088 186.197C236.088 185.178 235.676 184.668 234.852 184.668C234.129 184.668 233.477 184.914 232.895 185.406V184.422C233.484 184.047 234.164 183.859 234.934 183.859C236.344 183.859 237.049 184.605 237.049 186.098V190ZM236.088 186.965L234.641 187.164C234.195 187.227 233.859 187.338 233.633 187.498C233.406 187.654 233.293 187.934 233.293 188.336C233.293 188.629 233.396 188.869 233.604 189.057C233.814 189.24 234.094 189.332 234.441 189.332C234.918 189.332 235.311 189.166 235.619 188.834C235.932 188.498 236.088 188.074 236.088 187.562V186.965ZM243.635 184L240.875 190.961C240.383 192.203 239.691 192.824 238.801 192.824C238.551 192.824 238.342 192.799 238.174 192.748V191.887C238.381 191.957 238.57 191.992 238.742 191.992C239.227 191.992 239.59 191.703 239.832 191.125L240.312 189.988L237.969 184H239.035L240.658 188.617C240.678 188.676 240.719 188.828 240.781 189.074H240.816C240.836 188.98 240.875 188.832 240.934 188.629L242.639 184H243.635Z"
fill="#323232"
/>
<path
d="M276.252 186.988C276.252 187.984 276.041 188.76 275.619 189.314C275.197 189.865 274.633 190.141 273.926 190.141C273.598 190.141 273.328 190.094 273.117 190V189.027C273.328 189.18 273.602 189.256 273.938 189.256C274.824 189.256 275.268 188.504 275.268 187V181.598H276.252V186.988ZM283.113 190H282.152V189.051H282.129C281.73 189.777 281.113 190.141 280.277 190.141C278.848 190.141 278.133 189.289 278.133 187.586V184H279.088V187.434C279.088 188.699 279.572 189.332 280.541 189.332C281.01 189.332 281.395 189.16 281.695 188.816C282 188.469 282.152 188.016 282.152 187.457V184H283.113V190ZM290.039 190H289.078V186.578C289.078 185.305 288.613 184.668 287.684 184.668C287.203 184.668 286.805 184.85 286.488 185.213C286.176 185.572 286.02 186.027 286.02 186.578V190H285.059V184H286.02V184.996H286.043C286.496 184.238 287.152 183.859 288.012 183.859C288.668 183.859 289.17 184.072 289.518 184.498C289.865 184.92 290.039 185.531 290.039 186.332V190Z"
fill="#323232"
/>
<path
d="M323.252 186.988C323.252 187.984 323.041 188.76 322.619 189.314C322.197 189.865 321.633 190.141 320.926 190.141C320.598 190.141 320.328 190.094 320.117 190V189.027C320.328 189.18 320.602 189.256 320.938 189.256C321.824 189.256 322.268 188.504 322.268 187V181.598H323.252V186.988ZM330.113 190H329.152V189.051H329.129C328.73 189.777 328.113 190.141 327.277 190.141C325.848 190.141 325.133 189.289 325.133 187.586V184H326.088V187.434C326.088 188.699 326.572 189.332 327.541 189.332C328.01 189.332 328.395 189.16 328.695 188.816C329 188.469 329.152 188.016 329.152 187.457V184H330.113V190ZM333.02 190H332.059V181.117H333.02V190ZM339.74 184L336.98 190.961C336.488 192.203 335.797 192.824 334.906 192.824C334.656 192.824 334.447 192.799 334.279 192.748V191.887C334.486 191.957 334.676 191.992 334.848 191.992C335.332 191.992 335.695 191.703 335.938 191.125L336.418 189.988L334.074 184H335.141L336.764 188.617C336.783 188.676 336.824 188.828 336.887 189.074H336.922C336.941 188.98 336.98 188.832 337.039 188.629L338.744 184H339.74Z"
fill="#323232"
/>
<line
x1="26"
y1="7.5"
x2="346"
y2="7.50003"
stroke="#EBEBEB"
/>
<line x1="26" y1="33.5" x2="346" y2="33.5" stroke="#EBEBEB" />
<line x1="26" y1="59.5" x2="346" y2="59.5" stroke="#EBEBEB" />
<line x1="26" y1="85.5" x2="346" y2="85.5" stroke="#EBEBEB" />
<line
x1="26"
y1="111.5"
x2="346"
y2="111.5"
stroke="#EBEBEB"
/>
<line
x1="26"
y1="137.5"
x2="346"
y2="137.5"
stroke="#EBEBEB"
/>
<line
x1="26"
y1="163.5"
x2="346"
y2="163.5"
stroke="#EBEBEB"
/>
<path
d="M32 166L83.5947 128.154C84.8403 127.241 86.2285 126.54 87.7031 126.079L132.977 111.945C136.619 110.808 140.567 111.207 143.908 113.049L180.193 133.052C185.908 136.203 193.043 134.986 197.391 130.12L237.89 84.7992C240.546 81.827 244.343 80.1278 248.329 80.1278H291.384C295.42 80.1278 299.259 78.3863 301.918 75.35L346 25"
stroke="#FFE082"
stroke-width="2"
/>
<path
d="M32 166L83.4733 106.852C88.8126 100.717 97.9051 99.5633 104.607 104.171L128.829 120.823C136.002 125.755 145.801 124.047 150.883 116.981L181.209 74.8142C186.183 67.8976 195.705 66.0921 202.866 70.7076L242.239 96.084L273.72 118.474C281.908 124.297 293.373 121.221 297.547 112.082L346 6"
stroke="#B39DDB"
stroke-width="2"
/>
</svg>
