<svg width="24" height="24" viewBox="0 0 24 24" fill="none" xmlns="http://www.w3.org/2000/svg">
<path d="M19.6588 10.8332C19.6588 6.38266 16.2853 3.28516 11.4358 3.28516C6.4108 3.28516 2.9668 6.76216 2.9668 11.8382C2.9668 17.0777 6.3193 20.4002 11.6098 20.4002C12.9028 20.4002 14.1433 20.2157 15.0658 19.8977V18.6047C14.4208 18.9032 13.0348 19.0967 11.6308 19.0967C7.2418 19.0967 4.4113 16.2767 4.4113 11.8997C4.4113 7.63366 7.2928 4.57816 11.3023 4.57816C15.4048 4.57816 18.2143 7.11016 18.2143 10.8122C18.2143 13.3352 17.3833 14.9657 16.0903 14.9657C15.3523 14.9657 14.9323 14.5457 14.9323 13.8257V7.80916H13.3843V9.06016H13.2193C12.8203 8.16766 11.8978 7.61416 10.8193 7.61416C8.7193 7.61416 7.2523 9.35716 7.2523 11.8487C7.2523 14.4542 8.6878 16.2077 10.8208 16.2077C12.0208 16.2077 12.9433 15.6227 13.3843 14.5772H13.5493C13.6708 15.5822 14.6038 16.2992 15.8038 16.2992C18.1618 16.2992 19.6588 14.1767 19.6588 10.8347V10.8332ZM8.8933 11.8892C8.8933 10.0937 9.7033 9.02866 11.0773 9.02866C12.4723 9.02866 13.3633 10.1357 13.3633 11.8892C13.3633 13.6427 12.4618 14.7602 11.0563 14.7602C9.7138 14.7602 8.8933 13.6727 8.8933 11.8892Z" fill="#323232"/>
</svg>
