<svg width="24" height="24" viewBox="0 0 24 24" fill="none" xmlns="http://www.w3.org/2000/svg">
<path d="M16.0002 2.00001C17.1682 1.99992 18.3108 2.34072 19.2879 2.98061C20.2649 3.6205 21.034 4.53165 21.5008 5.6023C21.9675 6.67296 22.1116 7.85656 21.9154 9.00792C21.7192 10.1593 21.1912 11.2284 20.3962 12.084L20.2062 12.278L11.4792 21.005L11.4262 21.055L11.3702 21.1C10.6593 21.7129 9.74304 22.0344 8.80505 22.0002C7.86705 21.966 6.97663 21.5786 6.31224 20.9156C5.64784 20.2526 5.25855 19.363 5.22238 18.4251C5.18622 17.4871 5.50585 16.5702 6.11723 15.858L6.26623 15.694L6.28123 15.683L13.5712 8.379C13.7586 8.19123 14.0129 8.08558 14.2782 8.0853C14.5434 8.08502 14.798 8.19013 14.9857 8.3775C15.1735 8.56488 15.2791 8.81917 15.2794 9.08444C15.2797 9.34971 15.1746 9.60423 14.9872 9.79201L7.69723 17.096L7.68523 17.104C7.39099 17.4182 7.22519 17.8313 7.22053 18.2617C7.21587 18.6922 7.37269 19.1087 7.66005 19.4292C7.94741 19.7497 8.34445 19.9509 8.77285 19.9931C9.20125 20.0352 9.62989 19.9153 9.97423 19.657L10.0962 19.557L10.0972 19.558L18.7992 10.858L18.9582 10.693C19.6583 9.92347 20.0311 8.91143 19.9974 7.87161C19.9637 6.83179 19.5262 5.84602 18.7777 5.12343C18.0292 4.40084 17.0287 3.99829 15.9883 4.0012C14.9479 4.00411 13.9497 4.41224 13.2052 5.13901L13.0502 5.29901L13.0322 5.31101L3.70623 14.641C3.61332 14.7339 3.50303 14.8075 3.38166 14.8577C3.26029 14.9079 3.13022 14.9338 2.99887 14.9337C2.86752 14.9337 2.73747 14.9077 2.61614 14.8574C2.49481 14.8071 2.38457 14.7334 2.29173 14.6405C2.19888 14.5476 2.12525 14.4373 2.07502 14.3159C2.0248 14.1946 1.99898 14.0645 1.99902 13.9332C1.99912 13.6679 2.10459 13.4135 2.29223 13.226L11.6002 3.91301L11.6462 3.87001C12.2065 3.27834 12.8816 2.8073 13.6303 2.48575C14.379 2.1642 15.1854 1.99891 16.0002 2.00001Z" fill="#323232"/>
</svg>
