<svg
											width="10"
											height="11"
											viewBox="0 0 10 11"
											fill="none"
											xmlns="http://www.w3.org/2000/svg"
										>
											<path
												d="M9.96399 10.028C9.73967 9.93549 9.53337 9.87608 9.345 9.84961C9.15671 9.83185 9.0184 9.78131 8.93031 9.69756C8.87821 9.66216 8.80806 9.53664 8.71991 9.32064C8.5556 8.95934 8.42545 8.63098 8.32934 8.33574C8.17301 7.86847 8.04272 7.50709 7.93857 7.25147C7.71029 6.66542 7.51797 6.14754 7.3618 5.69803C7.27759 5.4557 7.02929 4.80125 6.61656 3.73467L5.38461 0.561682L5.31847 0.422852H5.00002H4.54928L2.86662 5.20885L1.44234 9.28102C1.33015 9.51015 1.23396 9.6601 1.15384 9.7306C1.06973 9.79654 0.849348 9.86501 0.492799 9.93535C0.260376 9.98402 0.100151 10.0236 0.012019 10.0544L0 10.5768H0.12621C0.470782 10.5768 0.805335 10.5459 1.1298 10.4843L1.4183 10.4315C2.55217 10.5196 3.25129 10.5637 3.51567 10.5637C3.52369 10.5196 3.52769 10.46 3.52769 10.3853C3.52769 10.2529 3.52571 10.1252 3.52164 10.0018C3.43753 9.9886 3.35639 9.97529 3.2783 9.96214C3.20018 9.94883 3.14007 9.9379 3.09801 9.92901C3.05598 9.92037 3.02889 9.91586 3.01687 9.91586C2.70835 9.86737 2.50201 9.79684 2.39788 9.70437C2.32977 9.65153 2.29571 9.55676 2.29571 9.42008C2.29571 9.33196 2.34181 9.14696 2.43394 8.86481C2.73445 7.94384 2.94273 7.33998 3.05892 7.05362L5.76336 7.06677L6.3163 8.57399L6.59859 9.32745C6.62267 9.40249 6.6346 9.47292 6.6346 9.53903C6.6346 9.60513 6.61061 9.6647 6.56249 9.71747C6.51439 9.76158 6.37825 9.81224 6.15378 9.86943L5.36646 10.0545C5.3504 10.2 5.34255 10.3718 5.34255 10.5702L5.69112 10.5569L6.89308 10.4842C7.11738 10.4754 7.38795 10.4709 7.70446 10.4709C8.0889 10.4709 8.46751 10.4886 8.8402 10.5237C9.28882 10.559 9.67349 10.5766 9.99409 10.5766C9.99813 10.5237 10 10.4665 10 10.4047C10 10.3255 9.98802 10.2 9.96399 10.028ZM5.28846 6.27319C5.23234 6.27319 5.12718 6.27199 4.97295 6.26986C4.81873 6.2678 4.58041 6.26446 4.25785 6.26002C3.93536 6.2555 3.62786 6.25115 3.3354 6.24673L4.35702 3.27198C4.51328 3.62015 4.69755 4.08508 4.90985 4.66682C5.15033 5.31027 5.3346 5.84135 5.46287 6.26002L5.28846 6.27319Z"
												fill="#676363"
											/>
										</svg>