<svg
											width="9"
											height="10"
											viewBox="0 0 9 10"
											fill="none"
											xmlns="http://www.w3.org/2000/svg"
										>
											<path
												d="M8.83459 0.0779677C8.79199 0.0288164 8.7268 0 8.658 0H2.64303C2.53916 0 2.4489 0.0645814 2.42451 0.156344L2.17677 1.08777C2.16059 1.14867 2.17599 1.21294 2.2187 1.2622C2.2613 1.31135 2.32638 1.34017 2.39529 1.34017H4.50882L2.57547 8.65983H0.589848C0.485986 8.65983 0.395726 8.72452 0.371334 8.81608L0.123482 9.7475C0.107296 9.8085 0.122696 9.87278 0.165409 9.92193C0.20801 9.97108 0.273092 10 0.341996 10H6.35698C6.46084 10 6.5511 9.93532 6.57538 9.84366L6.82312 8.91234C6.8393 8.85133 6.8239 8.78706 6.78119 8.7379C6.73859 8.68875 6.67351 8.65983 6.6046 8.65983H4.52265L6.45589 1.34017H8.41004C8.5139 1.34017 8.60416 1.27558 8.62844 1.18392L8.87629 0.252501C8.89259 0.191496 8.87719 0.127221 8.83459 0.0779677Z"
												fill="#676363"
											/>
										</svg>