<svg
											width="14"
											height="14"
											viewBox="0 0 14 14"
											fill="none"
											xmlns="http://www.w3.org/2000/svg"
										>
											<g clip-path="url(#clip0)">
												<path
													d="M2.25504 9.77789C2.3617 9.88184 2.50188 9.93388 2.64212 9.93388C2.78113 9.93388 2.92019 9.88274 3.0266 9.78037C3.24035 9.57475 3.24152 9.24022 3.02919 9.03322L1.27435 7.32244C1.17132 7.22264 1.11455 7.08998 1.11455 6.94887C1.11455 6.80775 1.17132 6.67509 1.27563 6.57405L3.02917 4.86451C3.2415 4.65751 3.24035 4.32298 3.02657 4.11736C2.81282 3.91173 2.46738 3.91284 2.25504 4.11987L0.502793 5.82814C0.193679 6.12749 0.0234375 6.52552 0.0234375 6.94887C0.0234375 7.37221 0.193679 7.77025 0.50151 8.06835L2.25504 9.77789Z"
													fill="#676363"
												/>
												<path
													d="M0.568996 1.26953H13.4442C13.7455 1.26953 13.9897 1.033 13.9897 0.741211C13.9897 0.44942 13.7455 0.212891 13.4442 0.212891H0.568996C0.267684 0.212891 0.0234375 0.44942 0.0234375 0.741211C0.0234375 1.033 0.267684 1.26953 0.568996 1.26953Z"
													fill="#676363"
												/>
												<path
													d="M13.4442 12.6816H0.568996C0.267684 12.6816 0.0234375 12.9182 0.0234375 13.21C0.0234375 13.5018 0.267684 13.7383 0.568996 13.7383H13.4442C13.7455 13.7383 13.9897 13.5018 13.9897 13.21C13.9897 12.9182 13.7455 12.6816 13.4442 12.6816Z"
													fill="#676363"
												/>
												<path
													d="M13.4412 9.56445H5.80337C5.50206 9.56445 5.25781 9.80098 5.25781 10.0928C5.25781 10.3846 5.50206 10.6211 5.80337 10.6211H13.4412C13.7425 10.6211 13.9867 10.3846 13.9867 10.0928C13.9867 9.80098 13.7425 9.56445 13.4412 9.56445Z"
													fill="#676363"
												/>
												<path
													d="M13.4412 3.33008H5.80337C5.50206 3.33008 5.25781 3.56661 5.25781 3.8584C5.25781 4.15019 5.50206 4.38672 5.80337 4.38672H13.4412C13.7425 4.38672 13.9867 4.15019 13.9867 3.8584C13.9867 3.56661 13.7425 3.33008 13.4412 3.33008Z"
													fill="#676363"
												/>
												<path
													d="M13.4412 6.44727H5.80337C5.50206 6.44727 5.25781 6.68379 5.25781 6.97559C5.25781 7.26738 5.50206 7.50391 5.80337 7.50391H13.4412C13.7425 7.50391 13.9867 7.26738 13.9867 6.97559C13.9867 6.68379 13.7425 6.44727 13.4412 6.44727Z"
													fill="#676363"
												/>
											</g>
											<defs>
												<clipPath id="clip0">
													<rect
														width="13.9663"
														height="13.525"
														fill="white"
														transform="translate(0.0234375 0.212891)"
													/>
												</clipPath>
											</defs>
										</svg>