<svg
											width="12"
											height="12"
											viewBox="0 0 12 12"
											fill="none"
											xmlns="http://www.w3.org/2000/svg"
										>
											<path
												d="M11.6396 1.13477H0.36036C0.162162 1.13477 0 1.29693 0 1.49513C0 1.69332 0.162162 1.85549 0.36036 1.85549H11.6396C11.8378 1.85549 12 1.69332 12 1.49513C12 1.29693 11.8378 1.13477 11.6396 1.13477Z"
												fill="#676363"
											/>
											<path
												d="M8.28829 4.12598H0.36036C0.162162 4.12598 0 4.28814 0 4.48634C0 4.68453 0.162162 4.8467 0.36036 4.8467H8.28829C8.48649 4.8467 8.64865 4.68453 8.64865 4.48634C8.64865 4.28814 8.48649 4.12598 8.28829 4.12598Z"
												fill="#676363"
											/>
											<path
												d="M11.6396 7.15332H0.36036C0.162162 7.15332 0 7.31548 0 7.51367C0 7.71187 0.162162 7.87403 0.36036 7.87403H11.6396C11.8378 7.87403 12 7.71187 12 7.51367C12 7.31548 11.8378 7.15332 11.6396 7.15332Z"
												fill="#676363"
											/>
											<path
												d="M5.44144 10.1445H0.36036C0.162162 10.1445 0 10.3067 0 10.5049C0 10.7031 0.162162 10.8653 0.36036 10.8653H5.44144C5.63964 10.8653 5.8018 10.7031 5.8018 10.5049C5.8018 10.3067 5.63964 10.1445 5.44144 10.1445Z"
												fill="#676363"
											/>
										</svg>