<svg
											width="15"
											height="14"
											viewBox="0 0 15 14"
											fill="none"
											xmlns="http://www.w3.org/2000/svg"
										>
											<g clip-path="url(#clip0)">
												<path
													d="M2.34659 7.353L0.593059 9.08895C0.382364 9.29754 0.386183 9.63204 0.601569 9.83605C0.707708 9.93662 0.845407 9.9867 0.983024 9.9867C1.12465 9.9867 1.26617 9.93361 1.37304 9.82781L3.1247 8.09373C3.43236 7.79465 3.60173 7.39756 3.60173 6.97527C3.60173 6.55193 3.43149 6.15389 3.12366 5.85579L1.37012 4.14624C1.15779 3.93922 0.812346 3.93809 0.598596 4.14373C0.384846 4.34936 0.383673 4.68389 0.596005 4.89089L2.35085 6.60167C2.45385 6.7015 2.51062 6.83416 2.51062 6.97527C2.51062 7.11639 2.45385 7.24905 2.35082 7.34885C2.3494 7.35022 2.34798 7.3516 2.34659 7.353Z"
													fill="#676363"
												/>
												<path
													d="M0.983059 1.26953H13.8582C14.1596 1.26953 14.4038 1.033 14.4038 0.741211C14.4038 0.44942 14.1596 0.212891 13.8582 0.212891H0.983059C0.681747 0.212891 0.4375 0.44942 0.4375 0.741211C0.4375 1.033 0.681747 1.26953 0.983059 1.26953Z"
													fill="#676363"
												/>
												<path
													d="M13.8582 12.6816H0.983059C0.681747 12.6816 0.4375 12.9182 0.4375 13.21C0.4375 13.5018 0.681747 13.7383 0.983059 13.7383H13.8582C14.1596 13.7383 14.4038 13.5018 14.4038 13.21C14.4038 12.9182 14.1596 12.6816 13.8582 12.6816Z"
													fill="#676363"
												/>
												<path
													d="M13.8553 3.33008H6.21743C5.91612 3.33008 5.67188 3.56661 5.67188 3.8584C5.67188 4.15019 5.91612 4.38672 6.21743 4.38672H13.8553C14.1566 4.38672 14.4008 4.15019 14.4008 3.8584C14.4008 3.56661 14.1566 3.33008 13.8553 3.33008Z"
													fill="#676363"
												/>
												<path
													d="M13.8553 6.44727H6.21743C5.91612 6.44727 5.67188 6.68379 5.67188 6.97559C5.67188 7.26738 5.91612 7.50391 6.21743 7.50391H13.8553C14.1566 7.50391 14.4008 7.26738 14.4008 6.97559C14.4008 6.68379 14.1566 6.44727 13.8553 6.44727Z"
													fill="#676363"
												/>
												<path
													d="M13.8553 9.56445H6.21743C5.91612 9.56445 5.67188 9.80098 5.67188 10.0928C5.67188 10.3846 5.91612 10.6211 6.21743 10.6211H13.8553C14.1566 10.6211 14.4008 10.3846 14.4008 10.0928C14.4008 9.80098 14.1566 9.56445 13.8553 9.56445Z"
													fill="#676363"
												/>
											</g>
											<defs>
												<clipPath id="clip0">
													<rect
														width="13.9663"
														height="13.525"
														fill="white"
														transform="translate(0.4375 0.212891)"
													/>
												</clipPath>
											</defs>
										</svg>