<svg
											width="16"
											height="15"
											viewBox="0 0 16 15"
											fill="none"
											xmlns="http://www.w3.org/2000/svg"
										>
											<g clip-path="url(#clip0)">
												<path
													d="M13.4032 0H1.96362C0.88086 0 0 0.853056 0 1.9016V12.9797C0 14.0282 0.88086 14.8813 1.96362 14.8813H13.4032C14.4859 14.8813 15.3668 14.0282 15.3668 12.9797V1.9016C15.3668 0.853056 14.4859 0 13.4032 0ZM14.4617 12.9797C14.4617 13.5449 13.9868 14.0047 13.4032 14.0047H1.96362C1.37995 14.0047 0.90511 13.5449 0.90511 12.9797V11.3809L3.88408 8.92634C3.99279 8.83676 4.15138 8.83592 4.2611 8.92416L6.12715 10.4247C6.30708 10.5694 6.5712 10.5575 6.73654 10.3972L11.1704 6.09695C11.2505 6.01921 11.3439 6.01165 11.3927 6.01406C11.4413 6.01647 11.5336 6.03327 11.6051 6.11858L14.4617 9.5247V12.9797H14.4617ZM14.4617 8.13426L12.3077 5.56591C12.0941 5.31118 11.7775 5.15545 11.4391 5.13863C11.1009 5.12206 10.7693 5.24535 10.5299 5.47758L6.38778 9.49497L4.8394 8.24985C4.39043 7.88881 3.74202 7.89256 3.29753 8.25881L0.90511 10.23V1.9016C0.90511 1.33638 1.37995 0.876541 1.96362 0.876541H13.4032C13.9868 0.876541 14.4617 1.33638 14.4617 1.9016V8.13426Z"
													fill="#676363"
												/>
												<path
													d="M4.8386 1.83105C3.63522 1.83105 2.65625 2.77915 2.65625 3.94445C2.65625 5.10978 3.63525 6.05785 4.8386 6.05785C6.04196 6.05785 7.02096 5.10978 7.02096 3.94445C7.02096 2.77912 6.04199 1.83105 4.8386 1.83105ZM4.8386 5.18134C4.13431 5.18134 3.56136 4.62646 3.56136 3.94445C3.56136 3.26242 4.13431 2.70757 4.8386 2.70757C5.5429 2.70757 6.11585 3.26245 6.11585 3.94445C6.11585 4.62646 5.5429 5.18134 4.8386 5.18134Z"
													fill="#676363"
												/>
											</g>
											<defs>
												<clipPath id="clip0">
													<rect width="15.3668" height="14.8813" fill="white" />
												</clipPath>
											</defs>
										</svg>