<svg
											width="12"
											height="10"
											viewBox="0 0 12 10"
											fill="none"
											xmlns="http://www.w3.org/2000/svg"
										>
											<path
												d="M11.4005 9.35672H3.37612C3.04539 9.35672 2.77734 9.08867 2.77734 8.75795C2.77734 8.42723 3.04539 8.15918 3.37612 8.15918H11.4003C11.731 8.15918 11.999 8.42723 11.999 8.75795C11.999 9.08867 11.7312 9.35672 11.4005 9.35672Z"
												fill="#676363"
											/>
											<path
												d="M11.4005 5.59891H3.37612C3.04539 5.59891 2.77734 5.33086 2.77734 5.00014C2.77734 4.66942 3.04539 4.40137 3.37612 4.40137H11.4003C11.731 4.40137 11.999 4.66942 11.999 5.00014C11.9992 5.33086 11.7312 5.59891 11.4005 5.59891Z"
												fill="#676363"
											/>
											<path
												d="M11.4005 1.84012H3.37612C3.04539 1.84012 2.77734 1.57207 2.77734 1.24135C2.77734 0.910629 3.04539 0.642578 3.37612 0.642578H11.4003C11.731 0.642578 11.999 0.910629 11.999 1.24135C11.999 1.57207 11.7312 1.84012 11.4005 1.84012Z"
												fill="#676363"
											/>
											<path
												d="M0.804151 2.0917C1.24827 2.0917 1.6083 1.73167 1.6083 1.28755C1.6083 0.843429 1.24827 0.483398 0.804151 0.483398C0.360031 0.483398 0 0.843429 0 1.28755C0 1.73167 0.360031 2.0917 0.804151 2.0917Z"
												fill="#676363"
											/>
											<path
												d="M0.804151 5.80362C1.24827 5.80362 1.6083 5.44358 1.6083 4.99946C1.6083 4.55534 1.24827 4.19531 0.804151 4.19531C0.360031 4.19531 0 4.55534 0 4.99946C0 5.44358 0.360031 5.80362 0.804151 5.80362Z"
												fill="#676363"
											/>
											<path
												d="M0.804151 9.5165C1.24827 9.5165 1.6083 9.15647 1.6083 8.71235C1.6083 8.26823 1.24827 7.9082 0.804151 7.9082C0.360031 7.9082 0 8.26823 0 8.71235C0 9.15647 0.360031 9.5165 0.804151 9.5165Z"
												fill="#676363"
											/>
										</svg>