<svg
											width="11"
											height="11"
											viewBox="0 0 11 11"
											fill="none"
											xmlns="http://www.w3.org/2000/svg"
										>
											<path
												d="M8.0581 5.16303C9.05637 4.72052 9.61939 3.89084 9.61939 2.83495C9.61939 1.895 9.24071 1.13561 8.52429 0.638871C7.93007 0.226861 7.10153 0 6.1912 0H0.921875V1.85149H1.84762V9.14851H0.921875V11H5.87215C6.67912 11 7.83211 10.8777 8.74222 10.2953C9.62663 9.72939 10.0751 8.87074 10.0751 7.74313C10.0751 6.44437 9.31346 5.48709 8.0581 5.16303ZM5.61392 4.35644H4.02584V1.85149H5.4469C6.86062 1.85149 7.43731 2.19673 7.43731 3.04319C7.43731 4.12859 6.44578 4.35644 5.61392 4.35644ZM4.02584 6.26238H5.70513C7.25913 6.26238 7.89299 6.66731 7.89299 7.65987C7.89299 8.64769 7.13132 9.14851 5.62917 9.14851H4.02584V6.26238Z"
												fill="#676363"
											/>
										</svg>