<svg
											width="12"
											height="12"
											viewBox="0 0 12 12"
											fill="none"
											xmlns="http://www.w3.org/2000/svg"
										>
											<g clip-path="url(#clip0)">
												<path
													d="M1.66618 7.19861H0.38451C0.17226 7.19861 0 7.0318 0 6.82625V6.20562C0 5.72653 0.40244 5.33681 0.897158 5.33681H1.15353C1.22431 5.33681 1.28167 5.28117 1.28167 5.21272V5.08854C1.28167 5.02008 1.22431 4.96445 1.15353 4.96445H0.38451C0.17226 4.96445 0 4.79763 0 4.59209C0 4.38654 0.17226 4.21973 0.38451 4.21973H1.15353C1.64825 4.21973 2.05069 4.60945 2.05069 5.08854V5.21272C2.05069 5.69181 1.64825 6.08153 1.15353 6.08153H0.897158C0.826471 6.08153 0.76902 6.13717 0.76902 6.20562V6.45389H1.66618C1.87843 6.45389 2.05069 6.62071 2.05069 6.82625C2.05069 7.0318 1.87843 7.19861 1.66618 7.19861Z"
													fill="#676363"
												/>
												<path
													d="M1.15353 10.0542H0.640881C0.428631 10.0542 0.256371 9.88737 0.256371 9.68183C0.256371 9.47628 0.428631 9.30947 0.640881 9.30947H1.15353C1.22431 9.30947 1.28167 9.25383 1.28167 9.18528V9.06119C1.28167 8.99265 1.22431 8.9371 1.15353 8.9371H0.38451C0.17226 8.9371 0 8.77029 0 8.56474C0 8.3592 0.17226 8.19238 0.38451 8.19238H1.15353C1.64825 8.19238 2.05069 8.58211 2.05069 9.06119V9.18528C2.05069 9.66446 1.64825 10.0542 1.15353 10.0542Z"
													fill="#676363"
												/>
												<path
													d="M1.15353 11.1704H0.38451C0.17226 11.1704 0 11.0036 0 10.798C0 10.5925 0.17226 10.4257 0.38451 10.4257H1.15353C1.22431 10.4257 1.28167 10.37 1.28167 10.3015V10.1774C1.28167 10.1089 1.22431 10.0533 1.15353 10.0533H0.640881C0.428631 10.0533 0.256371 9.8865 0.256371 9.68095C0.256371 9.47541 0.428631 9.30859 0.640881 9.30859H1.15353C1.64825 9.30859 2.05069 9.69832 2.05069 10.1774V10.3015C2.05069 10.7807 1.64825 11.1704 1.15353 11.1704Z"
													fill="#676363"
												/>
												<path
													d="M1.15353 3.22693C0.941279 3.22693 0.76902 3.06011 0.76902 2.85457V0.992767H0.38451C0.17226 0.992767 0 0.825951 0 0.620407C0 0.414864 0.17226 0.248047 0.38451 0.248047H1.15353C1.36578 0.248047 1.53804 0.414864 1.53804 0.620407V2.85457C1.53804 3.06011 1.36578 3.22693 1.15353 3.22693Z"
													fill="#676363"
												/>
												<path
													d="M11.4092 2.358H3.46263C3.25038 2.358 3.07812 2.19119 3.07812 1.98564C3.07812 1.7801 3.25038 1.61328 3.46263 1.61328H11.4092C11.6214 1.61328 11.7937 1.7801 11.7937 1.98564C11.7937 2.19119 11.6214 2.358 11.4092 2.358Z"
													fill="#676363"
												/>
												<path
													d="M11.4092 6.33066H3.46263C3.25038 6.33066 3.07812 6.16384 3.07812 5.9583C3.07812 5.75275 3.25038 5.58594 3.46263 5.58594H11.4092C11.6214 5.58594 11.7937 5.75275 11.7937 5.9583C11.7937 6.16384 11.6214 6.33066 11.4092 6.33066Z"
													fill="#676363"
												/>
												<path
													d="M11.4092 10.3023H3.46263C3.25038 10.3023 3.07812 10.1355 3.07812 9.92998C3.07812 9.72443 3.25038 9.55762 3.46263 9.55762H11.4092C11.6214 9.55762 11.7937 9.72443 11.7937 9.92998C11.7937 10.1355 11.6214 10.3023 11.4092 10.3023Z"
													fill="#676363"
												/>
											</g>
											<defs>
												<clipPath id="clip0">
													<rect width="11.7916" height="11.4191" fill="white" />
												</clipPath>
											</defs>
										</svg>