<svg width="32" height="32" viewBox="0 0 32 32" fill="none" xmlns="http://www.w3.org/2000/svg">
<g clip-path="url(#clip0)">
<path fill-rule="evenodd" clip-rule="evenodd" d="M19.342 0.0322266H14.592C13.156 0.0322266 12 1.21423 12 2.66623V23.3502C12 24.8042 13.156 25.9842 14.592 25.9842H19.342C20.776 25.9842 21.936 24.8022 21.936 23.3502V2.66623C21.936 1.21223 20.776 0.0322266 19.342 0.0322266ZM17.008 24.0122C16.6044 24.013 16.2046 23.9343 15.8315 23.7805C15.4583 23.6267 15.1191 23.4009 14.8333 23.116C14.5475 22.8311 14.3206 22.4926 14.1656 22.12C14.0106 21.7473 13.9305 21.3478 13.93 20.9442C13.93 19.2522 15.31 17.8742 17.008 17.8742C17.4176 17.8638 17.8252 17.9354 18.2067 18.0849C18.5882 18.2345 18.9359 18.4589 19.2293 18.7449C19.5227 19.0309 19.7559 19.3728 19.9151 19.7503C20.0743 20.1279 20.1564 20.5335 20.1564 20.9432C20.1564 21.353 20.0743 21.7586 19.9151 22.1361C19.7559 22.5137 19.5227 22.8556 19.2293 23.1416C18.9359 23.4276 18.5882 23.652 18.2067 23.8015C17.8252 23.951 17.4176 24.0227 17.008 24.0122ZM17.028 15.9962C16.2161 15.9941 15.4382 15.6698 14.8652 15.0946C14.2922 14.5193 13.9709 13.7402 13.972 12.9282C13.9616 12.5199 14.033 12.1137 14.182 11.7334C14.331 11.3531 14.5547 11.0066 14.8398 10.7141C15.1249 10.4216 15.4656 10.1892 15.8419 10.0305C16.2183 9.87177 16.6226 9.79 17.031 9.79C17.4394 9.79 17.8437 9.87177 18.2201 10.0305C18.5964 10.1892 18.9371 10.4216 19.2222 10.7141C19.5073 11.0066 19.731 11.3531 19.88 11.7334C20.029 12.1137 20.1004 12.5199 20.09 12.9282C20.09 14.6222 18.724 15.9962 17.028 15.9962ZM16.984 7.98423C15.374 7.98423 14.062 6.64823 14.062 5.00223C14.062 3.35423 15.374 2.01423 16.984 2.01423C18.608 2.01423 19.912 3.35423 19.912 5.00223C19.912 6.64823 18.608 7.98423 16.984 7.98423Z" fill="black"/>
<path fill-rule="evenodd" clip-rule="evenodd" d="M25.2833 7.95585H26.3313C27.0053 7.95585 29.9533 3.56785 29.9533 3.56785C29.9533 2.73185 29.4053 2.04785 28.7313 2.04785H25.2833C24.6073 2.04785 24.0613 2.73185 24.0613 3.56785V6.43585C24.0593 7.27385 24.6073 7.95585 25.2833 7.95585Z" fill="black"/>
<path fill-rule="evenodd" clip-rule="evenodd" d="M28.7264 10.0381H25.2744C24.6024 10.0381 24.0564 10.7161 24.0564 11.5501V14.3961C24.0564 15.2321 24.6024 15.9081 25.2744 15.9081H26.3224C26.9964 15.9081 29.9464 11.5501 29.9464 11.5501C29.9484 10.7141 29.3964 10.0381 28.7264 10.0381Z" fill="black"/>
<path fill-rule="evenodd" clip-rule="evenodd" d="M28.6868 18.0635H25.2368C24.5648 18.0635 24.0168 18.7475 24.0168 19.5855V22.4515C24.0168 23.2955 24.5648 23.9735 25.2368 23.9735H26.2868C26.9588 23.9735 29.9088 19.5875 29.9088 19.5875C29.9088 18.7475 29.3608 18.0635 28.6868 18.0635Z" fill="black"/>
<path fill-rule="evenodd" clip-rule="evenodd" d="M8.71019 2.04688H5.28019C4.61219 2.04688 4.07019 2.72087 4.07019 3.54487C4.07019 3.54487 6.99619 7.87088 7.66819 7.87088H8.71019C9.38019 7.87088 9.92019 7.19688 9.92019 6.37288V3.54487C9.92219 2.72087 9.38019 2.04688 8.71019 2.04688Z" fill="black"/>
<path fill-rule="evenodd" clip-rule="evenodd" d="M8.74974 10.0781H5.31974C4.65174 10.0781 4.10974 10.7561 4.10974 11.5901C4.10974 11.5901 7.03574 15.9461 7.70774 15.9461H8.74974C9.41774 15.9461 9.95974 15.2701 9.95974 14.4341V11.5901C9.95974 10.7561 9.41774 10.0781 8.74974 10.0781Z" fill="black"/>
<path fill-rule="evenodd" clip-rule="evenodd" d="M8.75374 18.1045H5.32174C4.65374 18.1045 4.10974 18.7685 4.10974 19.5825C4.10974 19.5825 7.03574 23.8445 7.70774 23.8445H8.75374C9.42174 23.8445 9.96174 23.1845 9.96174 22.3665V19.5825C9.96174 18.7685 9.42174 18.1045 8.75374 18.1045Z" fill="black"/>
<path fill-rule="evenodd" clip-rule="evenodd" d="M14 26H19.946V32.256H14V26Z" fill="black"/>
</g>
<defs>
<clipPath id="clip0">
<rect width="32" height="32" fill="white"/>
</clipPath>
</defs>
</svg>
